<svg viewBox="0 0 61.028 59.731" xmlns="http://www.w3.org/2000/svg"><style>.st1{fill:#86da2f}.st2{fill:#24c2ff}.st3{fill:#ffcb12}.st4{fill:#0069da}.st5{fill:#ff4649}</style><path class="st1" d="M56.114 33.731c2.6-.2 4.7 1.5 4.9 4.1.2 2.7-1.7 4.9-4.3 5.1-2.5.2-4.7-1.7-4.9-4.2-.2-2.7 1.6-4.7 4.3-5z"/><path class="st2" d="M24.514 55.031c0-2.6 2-4.6 4.4-4.6s4.7 2.2 4.7 4.7c0 2.4-2 4.5-4.3 4.6-2.9 0-4.8-1.8-4.8-4.7z"/><path class="st3" d="M31.614 25.831c-.4.2-.6-.1-.7-.4-3.7-6.9-2.6-15.6 3.9-20.8 1.7-1.4 4.9-1.7 6.3-.3.6.5.7 1.1.8 1.8.2 1.5.5 3 1.5 4.2 1.1 1.3 2.5 1.8 4.1 1.7 1.4 0 2.8-.2 3.7 1.4.5.9.3 4.4-.5 5.1-.4.3-.7.1-1 0-2.3-.9-4.7-.9-7.1-.5-.8.1-1.2-.1-1.2-1-.1-1.5-.4-2.9-1.2-4.2-1.5-2.7-4.3-2.8-6.1-.3-1.5 2-1.9 4.4-2.3 6.8-.4 2.1-.3 4.3-.2 6.5 0 0-.1 0 0 0z"/><path class="st1" d="M34.114 27.331c-.2-.3-.1-.6.2-.8 5.7-5.2 14.2-6.2 20.8-1.1 1.7 1.4 2.8 4.3 1.9 6-.4.7-.9 1-1.5 1.2-1.4.6-2.7 1.2-3.6 2.5s-1.1 2.8-.7 4.4c.3 1.3.8 2.7-.5 3.9-.7.7-4.1 1.3-5 .7-.4-.3-.3-.6-.2-1 .3-2.5-.3-4.8-1.2-7-.3-.8-.2-1.2.6-1.4 1.4-.4 2.7-1.1 3.7-2.1 2.2-2.1 1.7-4.8-1.2-6-2.3-1-4.7-.8-7-.6-2.2.1-4.3.7-6.3 1.3z"/><path class="st2" d="M32.814 29.931c.3-.3.5-.2.8 0 6.6 4 10 11.9 7 19.6-.8 2-3.4 4-5.3 3.5-.8-.2-1.2-.6-1.6-1.1-.9-1.2-1.9-2.3-3.4-2.8-1.6-.5-3-.2-4.4.6-1.2.7-2.4 1.6-3.9.7-.9-.5-2.4-3.6-2.1-4.6.2-.4.6-.4 1-.4 2.5-.4 4.5-1.6 6.4-3.2.6-.5 1.1-.5 1.6.2.8 1.2 1.8 2.2 3.1 2.9 2.6 1.5 5.1.2 5.4-2.8.3-2.5-.6-4.7-1.4-6.9-.9-2-2-3.9-3.2-5.7z"/><path class="st4" d="M29.614 30.531c-.4 2-1.3 3.9-2.5 5.6-3.6 5.4-8.8 7.6-15.2 7-2.3-.2-4.2-2.1-4.4-4-.1-.8.1-1.4.6-2 .7-.9 1.3-1.7 1.6-2.8.6-2.2-.2-4-1.8-5.6-2.2-2.2-1.9-4.2.7-5.8.3-.2.7-.4 1.1-.6.6-.3 1.1-.3 1.3.4.9 2.3 2.7 4 4.7 5.4.7.6.7 1 .1 1.7-1.2 1.3-1.9 2.9-2 4.7-.2 2.2 1.1 3.6 3.3 3.6 1.4 0 2.7-.5 3.9-1.1 3.1-1.6 5.5-3.9 7.8-6.3.3-.1.4-.3.8-.2z"/><path class="st5" d="M13.214 9.531c.2 0 .7.1 1.2.2 3.7.7 6-.6 7.2-4.1.8-2.3 2.5-3 4.7-1.8.1 0 .1.1.2.1 2.3 1.3 2.3 1.5.9 3.5-1.2 1.6-1.8 3.4-2.1 5.3-.2 1.1-.6 1.3-1.6.9-1.6-.6-3.3-.6-5 0-1.9.6-2.7 2.3-2.1 4.2.8 2.5 3 3.6 4.9 4.9s4.1 2 6.2 2.9c.3.1.8.1.7.6-.1.3-.5.3-.9.3-4.5.2-8.8-.5-12.3-3.5-3.3-2.7-5.7-6-5.3-10.6.3-1.5 1.4-2.6 3.3-2.9z"/><path class="st4" d="M5.014 37.631c-2.4.3-4.8-1.7-5-4.2-.2-2.4 1.8-4.8 4.1-5 2.6-.3 5 1.5 5.2 3.9.1 2.3-1.4 5.1-4.3 5.3z"/><path class="st3" d="M47.014 2.031c2.5-.2 4.9 1.8 5.1 4.3.2 2.4-1.8 4.7-4.2 4.9-2.6.2-4.9-1.7-5.1-4.2s1.6-4.8 4.2-5z"/><path class="st5" d="M20.914 3.931c.3 2.6-1.5 4.8-4.2 5.2-2.3.3-4.7-1.6-5-3.8-.3-2.9 1.3-5 4-5.3 2.5-.3 4.9 1.6 5.2 3.9z"/></svg>