<svg viewBox="-5.724 -43.601 714.54 512.74" xmlns="http://www.w3.org/2000/svg"><g fill="#0091e2"><path d="M701.77 149.96c-1.938-1.539-20.029-15.199-58.181-15.199a185.562 185.562 0 00-30.061 2.584c-7.384-50.612-49.228-75.288-51.104-76.395l-10.245-5.908-6.738 9.723a137.318 137.318 0 00-18.214 42.582c-6.831 28.891-2.677 56.027 11.999 79.226-17.722 9.876-46.151 12.307-51.904 12.522H16.642c-12.294.017-22.27 9.952-22.337 22.245a338.726 338.726 0 0020.614 120.95c16.214 42.521 40.336 73.842 71.719 93.01 35.167 21.537 92.302 33.844 157.07 33.844a468.88 468.88 0 0087.226-7.907 364.663 364.663 0 00113.84-41.352 312.969 312.969 0 0077.688-63.596c37.29-42.213 59.505-89.226 76.026-131.01h6.584c40.828 0 65.935-16.338 79.78-30.029a87.08 87.08 0 0021.045-31.167l2.923-8.553z"/><path d="M60.271 185.31h63.073a5.507 5.507 0 005.507-5.507v-56.182a5.507 5.507 0 00-5.476-5.538H60.271a5.507 5.507 0 00-5.507 5.507V179.802a5.507 5.507 0 005.507 5.508M147.19 185.31h63.073a5.507 5.507 0 005.507-5.507v-56.182a5.507 5.507 0 00-5.477-5.538h-63.104a5.537 5.537 0 00-5.538 5.538v56.181a5.54 5.54 0 005.539 5.508M235.43 185.31h63.073a5.507 5.507 0 005.507-5.507v-56.182a5.507 5.507 0 00-5.477-5.538h-63.104a5.507 5.507 0 00-5.507 5.507V179.802a5.51 5.51 0 005.508 5.508M322.62 185.31h63.073a5.537 5.537 0 005.538-5.507v-56.182a5.537 5.537 0 00-5.538-5.538H322.62a5.507 5.507 0 00-5.507 5.507V179.802a5.508 5.508 0 005.507 5.508M147.19 104.48h63.073a5.539 5.539 0 005.507-5.538V42.761a5.507 5.507 0 00-5.507-5.507H147.19a5.538 5.538 0 00-5.538 5.507v56.181a5.568 5.568 0 005.538 5.538M235.43 104.48h63.073a5.539 5.539 0 005.507-5.538V42.761a5.507 5.507 0 00-5.507-5.507H235.43a5.507 5.507 0 00-5.507 5.507v56.181a5.539 5.539 0 005.507 5.538M322.62 104.48h63.073a5.568 5.568 0 005.538-5.538V42.761a5.537 5.537 0 00-5.538-5.507H322.62a5.507 5.507 0 00-5.507 5.507v56.181a5.539 5.539 0 005.507 5.538M322.62 23.626h63.073a5.538 5.538 0 005.538-5.507v-56.213a5.537 5.537 0 00-5.538-5.507H322.62a5.506 5.506 0 00-5.507 5.507v56.212a5.508 5.508 0 005.507 5.508M410.59 185.31h63.073a5.537 5.537 0 005.538-5.507v-56.182a5.537 5.537 0 00-5.538-5.538H410.59a5.508 5.508 0 00-5.507 5.507V179.802a5.508 5.508 0 005.507 5.508"/></g></svg>