<svg xmlns="http://www.w3.org/2000/svg" viewBox="0 0 113.925 113.923"><defs><clipPath id="aaaaaaaa"><path d="M0 0h2183.73v912H0V0z"/></clipPath><clipPath id="bbbbbbbb"><path d="M230.892 51.977L181.15 2.238a7.336 7.336 0 00-10.375 0l-10.328 10.33 13.102 13.102c3.046-1.028 6.537-.339 8.964 2.089a8.72 8.72 0 012.07 9.02l12.627 12.627c3.055-1.053 6.58-.373 9.02 2.07a8.727 8.727 0 010 12.346 8.729 8.729 0 01-12.349 0 8.734 8.734 0 01-1.9-9.494L180.204 42.55v30.99a8.806 8.806 0 012.309 1.652c3.41 3.409 3.41 8.933 0 12.347-3.411 3.41-8.938 3.41-12.346 0-3.41-3.414-3.41-8.938 0-12.347a8.735 8.735 0 012.859-1.905V42.009a8.636 8.636 0 01-2.859-1.905 8.728 8.728 0 01-1.88-9.544L155.37 17.642l-34.106 34.105a7.339 7.339 0 000 10.378l49.742 49.74a7.338 7.338 0 0010.376 0l49.509-49.51a7.341 7.341 0 000-10.378" fill="#f03c2e"/></clipPath></defs><g transform="translate(-119.116 -.075)" clip-path="url(#bbbbbbbb)"><path d="M230.435-10.813l-49.742-49.739a7.336 7.336 0 00-10.374 0l-49.51 49.51a7.339 7.339 0 000 10.378l49.741 49.738a7.338 7.338 0 0010.376 0l49.51-49.508a7.341 7.341 0 000-10.379" fill="#ff8080"/><path d="M293.393 51.928L243.65 2.188a7.336 7.336 0 00-10.375 0c-16.502 16.505-33.006 33.007-49.51 49.51a7.339 7.339 0 000 10.378l49.742 49.739a7.338 7.338 0 0010.376 0l49.509-49.509a7.341 7.341 0 000-10.378" fill="#8dd35f"/><path d="M167.436 51.52L117.693 1.783a7.336 7.336 0 00-10.374 0l-49.51 49.509a7.339 7.339 0 000 10.378l49.741 49.74a7.338 7.338 0 0010.376-.001l49.51-49.508a7.341 7.341 0 000-10.38" fill="#80b3ff"/><path d="M230.13 114.117l-49.743-49.739a7.336 7.336 0 00-10.374 0l-49.51 49.51a7.339 7.339 0 000 10.378l49.741 49.738a7.338 7.338 0 0010.376 0l49.51-49.508a7.341 7.341 0 000-10.379" fill="#ffe680"/></g></svg>
