<svg viewBox="0 0 118.99 90.001" xmlns="http://www.w3.org/2000/svg"><linearGradient id="1652546342" x1="95.123" x2="26.855" y1="91.805" y2="30.825" gradientTransform="translate(-4.503 -19)" gradientUnits="userSpaceOnUse"><stop stop-color="#5391FE" offset="0"/><stop stop-color="#3E6DBF" offset="1"/></linearGradient><path d="M4.988 90c-1.62 0-3.021-.638-3.944-1.798-.944-1.185-1.268-2.814-.89-4.47L17.99 5.821C18.736 2.557 21.873 0 25.13 0h88.866c1.62 0 3.02.638 3.945 1.798.944 1.184 1.268 2.814.889 4.47l-17.834 77.911c-.747 3.264-3.884 5.822-7.143 5.822H4.988z" clip-rule="evenodd" fill="url(#1652546342)" fill-rule="evenodd"/><linearGradient id="1652546328" x1="26.178" x2="93.748" y1="30.015" y2="90.738" gradientTransform="translate(-4.503 -19)" gradientUnits="userSpaceOnUse"><stop stop-color="#5391FE" offset="0"/><stop stop-color="#3E6DBF" offset="1"/></linearGradient><g clip-rule="evenodd" fill-rule="evenodd"><path d="M25.131 1h88.866c2.769 0 4.496 2.259 3.858 5.045l-17.834 77.911c-.638 2.786-3.399 5.045-6.168 5.045H4.988c-2.769 0-4.496-2.258-3.858-5.045L18.964 6.045C19.601 3.259 22.363 1 25.131 1z" fill="url(#1652546328)"/><path d="M59.662 68.558h21.613c2.513 0 4.55 2.125 4.55 4.746s-2.037 4.747-4.55 4.747H59.662c-2.513 0-4.55-2.125-4.55-4.747 0-2.621 2.037-4.746 4.55-4.746zM73.681 47.455c-.372.749-1.144 1.575-2.509 2.534L31.059 78.798c-2.19 1.591-5.334 1.001-7.021-1.319s-1.28-5.49.91-7.082l36.173-26.194v-.538L38.393 19.487c-1.854-1.972-1.661-5.161.431-7.124 2.092-1.962 5.29-1.954 7.144.018l27.271 29.012c1.548 1.647 1.663 4.141.442 6.062z" fill="#2c5591"/><path d="M72.681 46.455c-.372.749-1.144 1.575-2.509 2.534L30.059 77.798c-2.19 1.591-5.334 1.001-7.021-1.319s-1.28-5.49.91-7.082l36.173-26.194v-.538L37.393 18.487c-1.854-1.972-1.661-5.161.431-7.124 2.092-1.962 5.29-1.954 7.144.018l27.271 29.012c1.548 1.647 1.663 4.141.442 6.062zM59.047 68H80.66c2.513 0 4.55 2.015 4.55 4.5S83.173 77 80.66 77H59.047c-2.513 0-4.55-2.015-4.55-4.5s2.037-4.5 4.55-4.5z" fill="#fff"/></g></svg>