<svg viewBox="0 0 120 90.001" xmlns="http://www.w3.org/2000/svg"><linearGradient id="1652546273" x1="95.267" x2="26.7" y1="91.926" y2="30.68" gradientTransform="translate(-4.002 -19)" gradientUnits="userSpaceOnUse"><stop stop-color="#A9C8FF" offset="0"/><stop stop-color="#C7E6FF" offset="1"/></linearGradient><path d="M5.03 90c-1.632 0-3.045-.638-3.977-1.798-.952-1.185-1.28-2.814-.896-4.47L18.143 5.821C18.897 2.557 22.06 0 25.347 0h89.623c1.634 0 3.047.638 3.978 1.798.952 1.184 1.279 2.814.896 4.47l-17.986 77.911c-.753 3.264-3.917 5.822-7.203 5.822H5.03z" clip-rule="evenodd" fill="url(#1652546273)" fill-rule="evenodd" opacity=".8"/><g transform="translate(-4.002 -19)"><linearGradient id="1652546298" x1="26.585" x2="93.585" y1="30.778" y2="90.278" gradientUnits="userSpaceOnUse"><stop stop-color="#2D4664" offset="0"/><stop stop-color="#29405B" offset=".169"/><stop stop-color="#1E2F43" offset=".445"/><stop stop-color="#0C131B" offset=".79"/><stop offset="1"/></linearGradient><path d="M118.5 20H29.634c-2.769 0-5.53 2.259-6.168 5.045l-17.834 77.91C4.995 105.742 6.722 108 9.491 108h88.865c2.769 0 5.53-2.258 6.168-5.045l17.834-77.911c.638-2.785-1.09-5.044-3.858-5.044z" clip-rule="evenodd" fill="url(#1652546298)" fill-rule="evenodd"/></g><g clip-rule="evenodd" fill-rule="evenodd"><path d="M60.163 68.558h21.613c2.513 0 4.55 2.125 4.55 4.746s-2.037 4.747-4.55 4.747H60.163c-2.513 0-4.55-2.125-4.55-4.747 0-2.621 2.037-4.746 4.55-4.746zM74.182 47.455c-.372.749-1.144 1.575-2.509 2.534L31.56 78.798c-2.19 1.591-5.334 1.001-7.021-1.319s-1.28-5.49.91-7.082l36.173-26.194v-.538L38.894 19.487c-1.854-1.972-1.661-5.161.431-7.124 2.092-1.962 5.29-1.954 7.144.018L73.74 41.393c1.548 1.647 1.663 4.141.442 6.062z" fill="#2c5591"/><path d="M73.182 46.455c-.372.749-1.144 1.575-2.509 2.534L30.56 77.798c-2.19 1.591-5.334 1.001-7.021-1.319s-1.28-5.49.91-7.082l36.173-26.194v-.538L37.894 18.487c-1.854-1.972-1.661-5.161.431-7.124 2.092-1.962 5.29-1.954 7.144.018L72.74 40.393c1.548 1.647 1.663 4.141.442 6.062zM59.548 68h21.613c2.513 0 4.55 2.015 4.55 4.5s-2.037 4.5-4.55 4.5H59.548c-2.513 0-4.55-2.015-4.55-4.5s2.037-4.5 4.55-4.5z" fill="#fff"/></g></svg>