<svg fill="none" viewBox="0 0 176.46 176.46" xmlns="http://www.w3.org/2000/svg"><g transform="translate(-8.271 -8.271)" clip-path="url(#a)"><g clip-path="url(#b)"><mask id="c" x="8" y="8" width="177" height="177" maskUnits="userSpaceOnUse"><path d="m40.621 157.52-29.408-22.057a7.284 7.284 0 0 1-2.942-5.881V63.41a7.287 7.287 0 0 1 2.942-5.881l29.408-22.057a6.658 6.658 0 0 0-2.021 5.881v110.29a6.66 6.66 0 0 0 2.021 5.881z" fill="#fff"/><path d="M181.46 38.895a7.39 7.39 0 0 0-4.081-1.213 7.139 7.139 0 0 0-5.073 2.057l-.513.515L113.121 96.5l-32.462 31.137-30.034 28.784-.515.516a7.137 7.137 0 0 1-5.073 2.059 7.386 7.386 0 0 1-4.412-1.472l-29.408-22.057a7.346 7.346 0 0 0 9.997-1.103l32.645-37.9 26.8-31.1 46.945-54.52a7.237 7.237 0 0 1 5.55-2.572 7.385 7.385 0 0 1 4.08 1.213z" fill="#fff"/><path d="m181.46 154.1-44.114 29.41a7.447 7.447 0 0 1-9.667-1.323l-47.02-54.555L53.86 96.459 21.215 58.592a7.386 7.386 0 0 0-9.997-1.064L40.626 35.47a7.39 7.39 0 0 1 4.411-1.473 7.132 7.132 0 0 1 5.073 2.06l.516.516L80.66 65.359l32.462 31.136 58.672 56.246.513.515a7.136 7.136 0 0 0 5.073 2.057 7.387 7.387 0 0 0 4.08-1.213z" fill="#fff"/><path d="M184.73 45.032v102.94a7.375 7.375 0 0 1-3.273 6.137l-44.114 29.41a7.38 7.38 0 0 0 3.272-6.14V15.629a7.44 7.44 0 0 0-3.383-6.14l44.225 29.41a7.419 7.419 0 0 1 3.273 6.137z" fill="#fff"/></mask><g mask="url(#c)"><path d="m40.621 157.52-29.408-22.057a7.292 7.292 0 0 1-2.942-5.881V63.41a7.287 7.287 0 0 1 2.942-5.881l29.408-22.057a6.658 6.658 0 0 0-2.021 5.881v110.29a6.66 6.66 0 0 0 2.021 5.881z" fill="#5e438f"/><g filter="url(#d)"><path d="M181.46 38.895a7.385 7.385 0 0 0-4.08-1.213 7.147 7.147 0 0 0-5.073 2.057l-.513.515-31.25 29.962L113.122 96.5l-32.463 31.137-30.034 28.784-.515.516a7.137 7.137 0 0 1-5.073 2.059 7.386 7.386 0 0 1-4.412-1.472l-29.408-22.057a7.346 7.346 0 0 0 9.997-1.103l16.471-19.115 16.173-18.785 26.8-31.1 46.945-54.52a7.25 7.25 0 0 1 5.55-2.573 7.39 7.39 0 0 1 4.081 1.213z" fill="url(#e)"/></g><g filter="url(#f)"><path d="m181.46 154.1-44.114 29.411a7.443 7.443 0 0 1-9.666-1.324l-47.021-54.555L53.86 96.459 37.687 77.71 21.216 58.592a7.387 7.387 0 0 0-9.997-1.064L40.627 35.47a7.389 7.389 0 0 1 4.411-1.473 7.128 7.128 0 0 1 5.073 2.06l.516.515L80.66 65.358l32.463 31.136 27.46 26.323 31.212 29.924.513.515a7.155 7.155 0 0 0 5.073 2.056 7.382 7.382 0 0 0 4.08-1.213z" fill="url(#g)"/></g><g filter="url(#h)"><path d="M184.73 45.032v102.93a7.38 7.38 0 0 1-3.273 6.138l-44.115 29.41a7.383 7.383 0 0 0 3.273-6.14V15.62a7.44 7.44 0 0 0-3.383-6.14l44.225 29.41a7.428 7.428 0 0 1 3.273 6.137z" fill="url(#i)"/></g></g></g></g><defs><linearGradient id="e" x1="151.64" x2="20.614" y1="8.271" y2="140.15" gradientUnits="userSpaceOnUse"><stop stop-color="#7252AA" offset="0"/><stop stop-color="#7252AA" offset="1"/></linearGradient><linearGradient id="g" x1="24.815" x2="147.97" y1="40.437" y2="178.29" gradientUnits="userSpaceOnUse"><stop stop-color="#AE7FE2" offset="0"/><stop stop-color="#9A70D4" offset="1"/></linearGradient><linearGradient id="i" x1="160.46" x2="160.46" y1="5.936" y2="183.37" gradientUnits="userSpaceOnUse"><stop stop-color="#D59DFF" offset="0"/><stop stop-color="#C18EF1" offset="1"/></linearGradient><filter id="d" x="6.032" y="4.386" width="180.6" height="161.09" color-interpolation-filters="sRGB" filterUnits="userSpaceOnUse"><feFlood flood-opacity="0" result="BackgroundImageFix"/><feColorMatrix in="SourceAlpha" result="hardAlpha" values="0 0 0 0 0 0 0 0 0 0 0 0 0 0 0 0 0 0 127 0"/><feOffset dy=".246"/><feGaussianBlur stdDeviation=".246"/><feColorMatrix values="0 0 0 0 0 0 0 0 0 0 0 0 0 0 0 0 0 0 0.24 0"/><feBlend in2="BackgroundImageFix" result="effect1_dropShadow"/><feColorMatrix in="SourceAlpha" result="hardAlpha" values="0 0 0 0 0 0 0 0 0 0 0 0 0 0 0 0 0 0 127 0"/><feOffset dy="1.295"/><feGaussianBlur stdDeviation="2.59"/><feColorMatrix values="0 0 0 0 0 0 0 0 0 0 0 0 0 0 0 0 0 0 0.22 0"/><feBlend in2="effect1_dropShadow" result="effect2_dropShadow"/><feBlend in="SourceGraphic" in2="effect2_dropShadow" result="shape"/></filter><filter id="f" x="6.032" y="30.118" width="180.6" height="161.09" color-interpolation-filters="sRGB" filterUnits="userSpaceOnUse"><feFlood flood-opacity="0" result="BackgroundImageFix"/><feColorMatrix in="SourceAlpha" result="hardAlpha" values="0 0 0 0 0 0 0 0 0 0 0 0 0 0 0 0 0 0 127 0"/><feOffset dy=".246"/><feGaussianBlur stdDeviation=".246"/><feColorMatrix values="0 0 0 0 0 0 0 0 0 0 0 0 0 0 0 0 0 0 0.24 0"/><feBlend in2="BackgroundImageFix" result="effect1_dropShadow"/><feColorMatrix in="SourceAlpha" result="hardAlpha" values="0 0 0 0 0 0 0 0 0 0 0 0 0 0 0 0 0 0 127 0"/><feOffset dy="1.295"/><feGaussianBlur stdDeviation="2.59"/><feColorMatrix values="0 0 0 0 0 0 0 0 0 0 0 0 0 0 0 0 0 0 0.22 0"/><feBlend in2="effect1_dropShadow" result="effect2_dropShadow"/><feBlend in="SourceGraphic" in2="effect2_dropShadow" result="shape"/></filter><filter id="h" x="121.69" y="-6.059" width="78.583" height="205.12" color-interpolation-filters="sRGB" filterUnits="userSpaceOnUse"><feFlood flood-opacity="0" result="BackgroundImageFix"/><feColorMatrix in="SourceAlpha" result="hardAlpha" values="0 0 0 0 0 0 0 0 0 0 0 0 0 0 0 0 0 0 127 0"/><feOffset/><feGaussianBlur stdDeviation=".13"/><feColorMatrix values="0 0 0 0 0 0 0 0 0 0 0 0 0 0 0 0 0 0 0.24 0"/><feBlend in2="BackgroundImageFix" result="effect1_dropShadow"/><feColorMatrix in="SourceAlpha" result="hardAlpha" values="0 0 0 0 0 0 0 0 0 0 0 0 0 0 0 0 0 0 127 0"/><feOffset/><feGaussianBlur stdDeviation="7.771"/><feColorMatrix values="0 0 0 0 0 0 0 0 0 0 0 0 0 0 0 0 0 0 0.3 0"/><feBlend in2="effect1_dropShadow" result="effect2_dropShadow"/><feBlend in="SourceGraphic" in2="effect2_dropShadow" result="shape"/></filter><clipPath id="a"><path transform="translate(8.271 8.271)" fill="#fff" d="M0 0h176.46v176.46H0z"/></clipPath><clipPath id="b"><path transform="translate(8.271 8.271)" fill="#fff" d="M0 0h176.46v176.46H0z"/></clipPath></defs></svg>