<svg aria-hidden="true" focusable="false" data-prefix="fal" data-icon="text-size" class="svg-inline--fa fa-text-size" role="img" xmlns="http://www.w3.org/2000/svg" viewBox="0 0 640 512"><path fill="currentColor" d="M0 48l0 96C0 152.8 7.156 160 16 160S32 152.8 32 144V64h144v384h-64C103.2 448 96 455.2 96 464S103.2 480 112 480h160C280.8 480 288 472.8 288 464S280.8 448 272 448h-64V64H352v80C352 152.8 359.2 160 368 160S384 152.8 384 144v-96C384 39.16 376.8 32 368 32h-352C7.156 32 0 39.16 0 48zM320 240v64c0 8.844 7.156 16 16 16S352 312.8 352 304V256h112v192H416c-8.844 0-16 7.156-16 16S407.2 480 416 480h128c8.844 0 16-7.156 16-16S552.8 448 544 448h-48V256H608v48c0 8.844 7.156 16 16 16S640 312.8 640 304v-64C640 231.2 632.8 224 624 224h-288C327.2 224 320 231.2 320 240z"></path></svg>
