<svg aria-hidden="true" focusable="false" data-prefix="fal" data-icon="asterisk" class="svg-inline--fa fa-asterisk" role="img" xmlns="http://www.w3.org/2000/svg" viewBox="0 0 448 512"><path fill="currentColor" d="M413.8 368.1C410.8 373.2 405.5 376 399.1 376c-2.766 0-5.562-.7187-8.125-2.219L240 284V464c0 8.844-7.156 16-15.1 16S208 472.8 208 464V284l-151.9 89.73C53.58 375.3 50.79 376 48.02 376c-5.469 0-10.8-2.812-13.8-7.859c-4.484-7.609-1.969-17.42 5.641-21.92L192.5 256L39.86 165.8c-7.609-4.5-10.12-14.31-5.641-21.92c4.531-7.578 14.31-10.06 21.92-5.641L208 227.1V48C208 39.16 215.2 32 224 32S240 39.16 240 48v179.1l151.9-89.73c7.641-4.422 17.42-1.938 21.92 5.641c4.484 7.609 1.969 17.42-5.641 21.92L255.5 256l152.7 90.22C415.7 350.7 418.3 360.5 413.8 368.1z"></path></svg>
