<svg aria-hidden="true" focusable="false" data-prefix="fal" data-icon="input-text" class="svg-inline--fa fa-input-text" role="img" xmlns="http://www.w3.org/2000/svg" viewBox="0 0 640 512"><path fill="currentColor" d="M576 64H63.1C28.65 64 0 92.65 0 128v256c0 35.35 28.65 64 63.1 64H576C611.3 448 640 419.3 640 384V128C640 92.65 611.3 64 576 64zM608 384c0 17.64-14.35 32-31.1 32H63.1C46.35 416 32 401.6 32 384V128c0-17.64 14.35-32 31.1-32H576C593.6 96 608 110.4 608 128V384zM405.6 248.5C412.2 239.3 416 228.1 416 216C416 185.1 390.9 160 360 160H304C295.2 160 288 167.2 288 176v160C288 344.8 295.2 352 304 352h72c30.88 0 56-25.12 56-56C432 275.1 421.4 258.4 405.6 248.5zM320 192h40C373.2 192 384 202.8 384 216S373.2 240 360 240H320V192zM376 320H320V272h56c13.22 0 24 10.77 24 24C400 309.2 389.2 320 376 320zM190.8 170.1c-4.812-12.16-24.88-12.16-29.69 0l-64 160c-3.281 8.188 .6875 17.5 8.906 20.78c8.219 3.312 17.5-.7187 20.78-8.906l15.33-38.31C142.8 303.7 143.4 304 144 304h64c.6484 0 1.201-.2949 1.83-.3691l15.33 38.31C227.7 348.2 233.7 352 240 352c1.969 0 4-.375 5.938-1.156c8.219-3.281 12.19-12.59 8.906-20.78L190.8 170.1zM154.8 272L176 219.1L197.2 272H154.8z"></path></svg>
