<?xml version="1.0" encoding="UTF-8" standalone="no"?>
<!-- Created with Inkscape (http://www.inkscape.org/) -->

<svg
   xmlns:dc="http://purl.org/dc/elements/1.1/"
   xmlns:cc="http://creativecommons.org/ns#"
   xmlns:rdf="http://www.w3.org/1999/02/22-rdf-syntax-ns#"
   xmlns:svg="http://www.w3.org/2000/svg"
   xmlns="http://www.w3.org/2000/svg"
   xmlns:sodipodi="http://sodipodi.sourceforge.net/DTD/sodipodi-0.dtd"
   xmlns:inkscape="http://www.inkscape.org/namespaces/inkscape"
   id="svg2"
   version="1.1"
   inkscape:version="0.91 r13725"
   xml:space="preserve"
   width="536.82501"
   height="126.525"
   viewBox="0 0 536.82501 126.525"
   sodipodi:docname="elements_wortmarke+bildmarke_gelb+weiß_rz.svg"
   inkscape:export-filename="/home/eugene/Downloads/logo.png"
   inkscape:export-xdpi="42.677204"
   inkscape:export-ydpi="42.677204"><metadata
     id="metadata8"><rdf:RDF><cc:Work
         rdf:about=""><dc:format>image/svg+xml</dc:format><dc:type
           rdf:resource="http://purl.org/dc/dcmitype/StillImage" /><dc:title></dc:title></cc:Work></rdf:RDF></metadata><defs
     id="defs6" /><sodipodi:namedview
     pagecolor="#ffffff"
     bordercolor="#666666"
     borderopacity="1"
     objecttolerance="10"
     gridtolerance="10"
     guidetolerance="10"
     inkscape:pageopacity="0"
     inkscape:pageshadow="2"
     inkscape:window-width="1845"
     inkscape:window-height="1025"
     id="namedview4"
     showgrid="false"
     inkscape:zoom="1.1586643"
     inkscape:cx="143.54613"
     inkscape:cy="-3.8338411"
     inkscape:window-x="75"
     inkscape:window-y="27"
     inkscape:window-maximized="1"
     inkscape:current-layer="g10" /><g
     id="g10"
     inkscape:groupmode="layer"
     inkscape:label="ink_ext_XXXXXX"
     transform="matrix(1.25,0,0,-1.25,0,126.525)"><g
       id="g12"
       transform="scale(0.1,0.1)"><path
         d="m 202.457,809.793 404.891,0 0,202.457 -404.891,0 0,-202.457 z"
         style="fill:#fff200;fill-opacity:1;fill-rule:nonzero;stroke:none"
         id="path14"
         inkscape:connector-curvature="0" /><path
         d="m 0,607.375 202.445,0 0,202.457 -202.445,0 0,-202.457 z"
         style="fill:#fff200;fill-opacity:1;fill-rule:nonzero;stroke:none"
         id="path16"
         inkscape:connector-curvature="0" /><path
         d="m 202.457,404.918 404.891,0 0,202.457 -404.891,0 0,-202.457 z"
         style="fill:#fff200;fill-opacity:1;fill-rule:nonzero;stroke:none"
         id="path18"
         inkscape:connector-curvature="0" /><path
         d="m 0,202.461 202.445,0 0,202.457 -202.445,0 0,-202.457 z"
         style="fill:#fff200;fill-opacity:1;fill-rule:nonzero;stroke:none"
         id="path20"
         inkscape:connector-curvature="0" /><path
         d="m 202.457,0 404.891,0 0,202.461 -404.891,0 0,-202.461 z"
         style="fill:#fff200;fill-opacity:1;fill-rule:nonzero;stroke:none"
         id="path22"
         inkscape:connector-curvature="0" /><path
         d="m 1072.96,482.414 -148.108,0 0,48.219 148.108,0 0,-48.219 z m 39.27,-234.23 -302.441,0 0,516.679 302.441,0 0,-48.218 -247.32,0 0,-420.243 247.32,0 0,-48.218"
         style="fill:#ffffff;fill-opacity:1;fill-rule:nonzero;stroke:none"
         id="path24"
         inkscape:connector-curvature="0" /><path
         d="m 1518.04,248.184 -187.4,0 0,48.218 187.4,0 0,-48.218 z m -247.34,0 -55.1,0 0,516.679 55.1,0 0,-516.679"
         style="fill:#ffffff;fill-opacity:1;fill-rule:nonzero;stroke:none"
         id="path26"
         inkscape:connector-curvature="0" /><path
         d="m 1875.61,482.414 -148.12,0 0,48.219 148.12,0 0,-48.219 z m 39.27,-234.23 -302.43,0 0,516.679 302.43,0 0,-48.218 -247.33,0 0,-420.243 247.33,0 0,-48.218"
         style="fill:#ffffff;fill-opacity:1;fill-rule:nonzero;stroke:none"
         id="path28"
         inkscape:connector-curvature="0" /><path
         d="m 2515.65,248.184 -55.12,0 0,333.425 55.12,0 0,-333.425 z m -432.66,0 -55.1,0 0,333.425 55.1,0 0,-333.425"
         style="fill:#ffffff;fill-opacity:1;fill-rule:nonzero;stroke:none"
         id="path30"
         inkscape:connector-curvature="0" /><path
         d="m 2899.41,482.414 -148.12,0 0,48.219 148.12,0 0,-48.219 z m 39.28,-234.23 -302.44,0 0,516.679 302.44,0 0,-48.218 -247.34,0 0,-420.243 247.34,0 0,-48.218"
         style="fill:#ffffff;fill-opacity:1;fill-rule:nonzero;stroke:none"
         id="path32"
         inkscape:connector-curvature="0" /><path
         d="m 3438.17,419.605 -55.11,0 0,345.258 55.11,0 0,-345.258 z m -334.12,-171.421 -55.12,0 0,344.457 55.12,0 0,-344.457 z m 336.1,19.675 -44.09,-28.949 -352.46,505.524 44.79,28.933 351.76,-505.508"
         style="fill:#ffffff;fill-opacity:1;fill-rule:nonzero;stroke:none"
         id="path34"
         inkscape:connector-curvature="0" /><path
         d="m 3732.38,248.184 -55.1,0 0,408.523 55.1,0 0,-408.523 z m 160.52,468.461 -376.14,0 0,48.218 376.14,0 0,-48.218"
         style="fill:#ffffff;fill-opacity:1;fill-rule:nonzero;stroke:none"
         id="path36"
         inkscape:connector-curvature="0" /><path
         d="m 4243.6,638.805 c -18.61,62.683 -73.02,92.308 -126.76,92.308 -56.49,0 -108.85,-33.754 -108.85,-95.761 0,-37.891 23.43,-75.786 73.02,-86.801 l 16.54,-4.141 -13.1,-48.91 -15.16,3.453 c -75.77,17.902 -115.04,76.461 -115.04,135.02 0,95.757 80.6,144.683 162.59,144.683 73.71,0 148.81,-39.273 171.54,-122.64 L 4243.6,638.805 Z M 4122.34,234.406 c -75.78,0 -153.63,38.571 -181.18,124.696 l 46.84,19.285 c 19.99,-66.137 75.79,-95.762 132.27,-95.762 63.39,0 121.26,37.203 121.26,104.027 0,46.856 -28.24,81.297 -83.37,92.313 l -13.77,2.758 13.08,48.91 19.99,-4.129 c 76.46,-15.848 117.12,-69.586 117.12,-137.777 0,-85.438 -68.9,-154.321 -172.24,-154.321"
         style="fill:#ffffff;fill-opacity:1;fill-rule:nonzero;stroke:none"
         id="path38"
         inkscape:connector-curvature="0" /><path
         d="m 2528.61,742.93 -44.08,35.597 -211.89,-224.117 -212.58,224.731 -44.08,-35.598 249.15,-263.246 7.51,-7.883 7.51,7.883 248.46,262.633"
         style="fill:#ffffff;fill-opacity:1;fill-rule:nonzero;stroke:none"
         id="path40"
         inkscape:connector-curvature="0" /></g></g></svg>