<svg aria-hidden="true" focusable="false" data-prefix="fal" data-icon="arrow-down-to-square" class="svg-inline--fa fa-arrow-down-to-square" role="img" xmlns="http://www.w3.org/2000/svg" viewBox="0 0 512 512"><path fill="currentColor" d="M432 128h-64C359.2 128 352 135.2 352 144S359.2 160 368 160h64C440.8 160 448 167.2 448 176v288c0 8.812-7.188 16-16 16h-352C71.19 480 64 472.8 64 464v-288C64 167.2 71.19 160 80 160h64C152.8 160 160 152.8 160 144S152.8 128 144 128h-64C53.53 128 32 149.5 32 176v288C32 490.5 53.53 512 80 512h352c26.47 0 48-21.53 48-48v-288C480 149.5 458.5 128 432 128zM148.7 260.7c-6.25 6.25-6.25 16.38 0 22.62l96 96C247.8 382.4 251.9 384 256 384s8.188-1.562 11.31-4.688l96-96c6.25-6.25 6.25-16.38 0-22.62s-16.38-6.25-22.62 0L272 329.4V16C272 7.156 264.8 0 256 0S240 7.156 240 16v313.4L171.3 260.7C165.1 254.4 154.9 254.4 148.7 260.7z"></path></svg>
