<svg aria-hidden="true" focusable="false" data-prefix="fal" data-icon="clock-rotate-left" class="svg-inline--fa fa-clock-rotate-left" role="img" xmlns="http://www.w3.org/2000/svg" viewBox="0 0 512 512"><path fill="currentColor" d="M256 0C397.4 0 512 114.6 512 256C512 397.4 397.4 512 256 512C172.2 512 97.87 471.8 51.19 409.6C45.88 402.5 47.31 392.5 54.37 387.2C61.44 381.9 71.47 383.3 76.78 390.4C117.7 444.8 182.7 480 256 480C379.7 480 480 379.7 480 256C480 132.3 379.7 32 256 32C166.7 32 89.51 84.3 53.55 160H144C152.8 160 160 167.2 160 176C160 184.8 152.8 192 144 192H16C7.164 192 0 184.8 0 176V48C0 39.16 7.164 32 16 32C24.84 32 32 39.16 32 48V131.1C75.66 53.29 159.6 0 256 0zM256 128C264.8 128 272 135.2 272 144V249.4L347.3 324.7C353.6 330.9 353.6 341.1 347.3 347.3C341.1 353.6 330.9 353.6 324.7 347.3L244.7 267.3C241.7 264.3 239.1 260.2 239.1 256V144C239.1 135.2 247.2 128 255.1 128H256z"></path></svg>
