<svg aria-hidden="true" focusable="false" data-prefix="far" data-icon="history" class="svg-inline--fa fa-history fa-w-16" role="img" xmlns="http://www.w3.org/2000/svg" viewBox="0 0 512 512"><path fill="#fff" d="M504 255.532c.252 136.64-111.182 248.372-247.822 248.468-64.014.045-122.373-24.163-166.394-63.942-5.097-4.606-5.3-12.543-.443-17.4l16.96-16.96c4.529-4.529 11.776-4.659 16.555-.395C158.208 436.843 204.848 456 256 456c110.549 0 200-89.468 200-200 0-110.549-89.468-200-200-200-55.52 0-105.708 22.574-141.923 59.043l49.091 48.413c7.641 7.535 2.305 20.544-8.426 20.544H26.412c-6.627 0-12-5.373-12-12V45.443c0-10.651 12.843-16.023 20.426-8.544l45.097 44.474C124.866 36.067 187.15 8 256 8c136.811 0 247.747 110.781 248 247.532zm-167.058 90.173l14.116-19.409c3.898-5.36 2.713-12.865-2.647-16.763L280 259.778V116c0-6.627-5.373-12-12-12h-24c-6.627 0-12 5.373-12 12v168.222l88.179 64.13c5.36 3.897 12.865 2.712 16.763-2.647z"></path></svg>
