<svg aria-hidden="true" focusable="false" data-prefix="fal" data-icon="down-to-dotted-line" class="svg-inline--fa fa-down-to-dotted-line" role="img" xmlns="http://www.w3.org/2000/svg" viewBox="0 0 448 512"><path fill="currentColor" d="M364.1 246.6L253.9 370.6C237.1 388.5 210 388.5 194.1 370.6L83.92 246.6C60.99 220.8 79.3 180 113.8 180H160V76.04C160 53.95 177.9 36.04 200 36.04H248C270.1 36.04 288 53.95 288 76.04V180H334.2C368.7 180 387 220.8 364.1 246.6zM113.8 212C106.9 212 103.3 220.2 107.8 225.4L218 349.3C221.2 352.9 226.8 352.9 229.1 349.3L340.2 225.4C344.8 220.2 341.1 212 334.2 212H256V76.04C256 71.62 252.4 68.04 248 68.04H200C195.6 68.04 192 71.62 192 76.04V212H113.8zM392 448C392 434.8 402.7 424 416 424C429.3 424 440 434.8 440 448C440 461.3 429.3 472 416 472C402.7 472 392 461.3 392 448zM56 448C56 461.3 45.25 472 32 472C18.75 472 8 461.3 8 448C8 434.7 18.75 424 32 424C45.25 424 56 434.7 56 448zM104 448C104 434.7 114.7 424 128 424C141.3 424 152 434.7 152 448C152 461.3 141.3 472 128 472C114.7 472 104 461.3 104 448zM248 448C248 461.3 237.3 472 224 472C210.7 472 200 461.3 200 448C200 434.7 210.7 424 224 424C237.3 424 248 434.7 248 448zM296 448C296 434.7 306.7 424 320 424C333.3 424 344 434.7 344 448C344 461.3 333.3 472 320 472C306.7 472 296 461.3 296 448z"></path></svg>
