<svg xmlns="http://www.w3.org/2000/svg" viewBox="0 0 496 512"><path d="M248 8C111 8 0 119 0 256s111 248 248 248 248-111 248-248S385 8 248 8zm179.3 160h-67.2c-6.7-36.5-17.5-68.8-31.2-94.7 42.9 19 77.7 52.7 98.4 94.7zM248 56c18.6 0 48.6 41.2 63.2 112H184.8C199.4 97.2 229.4 56 248 56zM48 256c0-13.7 1.4-27.1 4-40h77.7c-1 13.1-1.7 26.3-1.7 40s.7 26.9 1.7 40H52c-2.6-12.9-4-26.3-4-40zm20.7 88h67.2c6.7 36.5 17.5 68.8 31.2 94.7-42.9-19-77.7-52.7-98.4-94.7zm67.2-176H68.7c20.7-42 55.5-75.7 98.4-94.7-13.7 25.9-24.5 58.2-31.2 94.7zM248 456c-18.6 0-48.6-41.2-63.2-112h126.5c-14.7 70.8-44.7 112-63.3 112zm70.1-160H177.9c-1.1-12.8-1.9-26-1.9-40s.8-27.2 1.9-40h140.3c1.1 12.8 1.9 26 1.9 40s-.9 27.2-2 40zm10.8 142.7c13.7-25.9 24.4-58.2 31.2-94.7h67.2c-20.7 42-55.5 75.7-98.4 94.7zM366.3 296c1-13.1 1.7-26.3 1.7-40s-.7-26.9-1.7-40H444c2.6 12.9 4 26.3 4 40s-1.4 27.1-4 40h-77.7z"/></svg>