<svg version="1" viewBox="0 0 459.36 233.64" xmlns="http://www.w3.org/2000/svg"><path d="M448.2.54c-1.708-.456-3.412-.54-5.177-.54H15.093C8.67.05 3.033 4.105.898 10.144c-.697 1.963-.9 3.95-.9 6.01v202.42c.238 8.434 6.837 15.012 15.194 15.033 17.519.023 53.594-.063 53.594-.063l-.064-15.665h-52.62c-.279-1.683-.208-199.78.064-200.69 1.612-.225 425.79-.144 426.72.074.257 1.528.182 199.65-.098 200.69H88.048v15.667s1.384 0 2.018.023h354.25a15.182 15.182 0 0014.147-10.038c.697-1.908.898-3.875.898-5.886v-202.8c-.134-6.7-4.693-12.585-11.143-14.365zM88.06 174.55v-40.512c0-.914.257-1.556 1.003-2.135 3.129-2.474 6.216-5.019 9.303-7.545.308-.228.608-.432.992-.712.333.43.613.783.872 1.17 5.248 7.572 10.5 15.136 15.746 22.696 6.436 9.313 12.883 18.583 19.306 27.852.356.538.684.946 1.475.946 6.762-.023 13.519-.023 20.273-.023.223 0 .453-.074.81-.155-14.956-21.781-29.85-43.412-44.79-65.174 3.005-3.49 5.913-6.847 8.817-10.288 2.912-3.37 5.814-6.75 8.721-10.142 2.903-3.384 5.785-6.774 8.696-10.161 2.904-3.395 5.813-6.783 8.685-10.168a1556.02 1556.02 0 008.827-10.347h-1.704c-6.12 0-12.237.037-18.358-.023-1.125 0-1.835.326-2.578 1.2a41266 41266 0 01-45.178 53.398c-.2.228-.46.432-.894.832V70.965c0-3.666.063-7.343 0-11.012H69.175v116.15c1.501.264 17.926.21 18.94-.063v-1.477zm100.96 1.682c.152-.44.326-.818.459-1.227 3.055-8.681 6.114-17.348 9.178-26.037a136.3 136.3 0 001.478-4.203c.182-.585.48-.892 1.098-.817.2.023.432 0 .635 0h43.136c3.9 10.803 7.772 21.529 11.63 32.255h20.192a186785 186785 0 01-43.549-116.77h-20.649c-.132.254-.23.44-.282.614-14.377 38.55-28.737 77.119-43.11 115.66-.062.063-.062.182-.062.256v.124c0 .05.063.074.074.132h19.734zm17.457-50.036c3.977-11.515 8.01-22.98 11.885-34.526 1.555-4.64 2.727-9.427 4.05-14.16.113-.358.183-.718.334-1.257.2.305.356.491.41.692 3.159 11.794 7.477 23.237 11.398 34.807 1.63 4.814 3.316 9.599 4.974 14.415.126.431.251.862.404 1.395H206.05c.152-.502.28-.934.426-1.365zm102.24-57.278c0-3.008.11-5.988-.087-8.967h-18.675c-.315 1.452-.238 115.33.063 116.29h68.021v-16.18h-32.812c-2.758 0-5.538.023-8.284 0-2.707-.023-5.403.1-8.21-.063V68.94zm81.201-8.251c0-.18 0-.33-.063-.518 0-.05-.062-.063-.062-.099 0-.023-.075-.063-.075-.063h-18.74v116.22h18.839c.063-.195.11-.3.11-.43V60.667z" clip-rule="evenodd" fill="#367bf0" fill-rule="evenodd"/></svg>