<svg viewBox="0 0 80.14 56.1" xmlns="http://www.w3.org/2000/svg"><defs><style>.cls-2{fill:#002fa7}</style></defs><g data-name="图层 2"><g data-name="图层 1"><path class="cls-2" d="M75.101 9.097c-4.08-1.06-9-.05-11.16 2.28s-.92 5.49 3.27 6.82c4.39 1.4 9.92.3 12.07-2.42s.08-5.53-4.18-6.68zM48.941 40.017a12.32 12.32 0 00-13.77 2.64c-3.54 3.79-3.15 9.12 1.26 11.87 4.68 2.93 11.67 1.64 15.18-2.82a7.39 7.39 0 00-2.67-11.69zM57.421 4.527a12.49 12.49 0 00-6.13.12 11.3 11.3 0 01-4.76-.14 3.68 3.68 0 01-2.66-1.92 1.58 1.58 0 00-.1-.43v-.06a3.38 3.38 0 00-2.45-1.72.61.61 0 00-.13 0 10.14 10.14 0 00-4.78-.17c-3.55.66-6.15 2.71-5.81 4.58a10.21 10.21 0 01-.06 1 4.34 4.34 0 01-1.79 2.46 8.39 8.39 0 01-3.2 1.69 14.83 14.83 0 01-2 .26 19.55 19.55 0 00-2.81.17 5.75 5.75 0 00-3.17 1.59 3.78 3.78 0 00-.88 3 5.5 5.5 0 01.06 1.29 5.55 5.55 0 01-2.37 3.67 12.93 12.93 0 01-5.41 2.49 13.54 13.54 0 00-5.87 2.6c-3.38 2.64-4.16 6.12-1.53 7.76 1.54 1 3.89 1.06 6.29.41a8 8 0 015.15.72 4.42 4.42 0 011.78 1.81 3.24 3.24 0 01.32 1 4.12 4.12 0 01.07.78 4.91 4.91 0 002.25 5.21c3.57 2.22 9.6 1.06 13.14-2.55 3.38-3.45 3-7.63-.64-9.39a10.13 10.13 0 00-6.91-.37 8.66 8.66 0 01-5.24-.66 3.54 3.54 0 01-2.14-3.24 6.83 6.83 0 01.42-1.64 9.92 9.92 0 012.16-3.13 9.55 9.55 0 014.44-2.36c.68-.18 1.79-.41 2-.43a10.64 10.64 0 014.93.41c1.41.57 2.45 1.5 2.54 2.66a4.47 4.47 0 002.8 4 11.61 11.61 0 0011.84-2.37c2.7-2.76 1.8-6-1.78-7.24a11.39 11.39 0 00-6.5-.08 10 10 0 01-5-.35c-1.46-.55-2.42-1.44-2.47-2.48a5.59 5.59 0 011.77-3.87 11.79 11.79 0 013.91-2 12.63 12.63 0 011.85-.43 11.79 11.79 0 014.69.19c1.4.42 2.68 1.19 2.72 2 .06 1.1 1.15 2.41 3.13 3 3.55 1.14 8.47.13 10.77-2.21s1.05-4.72-2.44-5.63z"/></g></g></svg>