<svg viewBox="0 0 96 95.503" xmlns="http://www.w3.org/2000/svg"><defs><linearGradient id="1652546395" x1="48" x2="48" y1="97.75" y2="2.25" gradientTransform="matrix(1 0 0 -1 0 98)" gradientUnits="userSpaceOnUse"><stop stop-color="#fff" offset="0"/><stop stop-color="#fff" stop-opacity="0" offset="1"/></linearGradient><mask id="1652546356" x="0" y="0" width="96" height="95.51" maskUnits="userSpaceOnUse"><path transform="translate(0 -.25)" d="M68.89 95.6a6 6 0 003.93-.44l19.78-9.51a6 6 0 003.4-5.41V15.76a6 6 0 00-3.4-5.41L72.82.84a6 6 0 00-4.48-.29A6 6 0 0066 2L34.12 37.26 15.5 22l-1.63-1.4a4 4 0 00-3.61-.83 2.55 2.55 0 00-.53.18L2.46 23A4 4 0 000 26.37v43.26A4 4 0 002.46 73l7.27 3a2.55 2.55 0 00.53.18 4 4 0 003.61-.83L15.5 74l18.62-15.26L66 94a6 6 0 002.89 1.6zM72 27.68L47.21 48 72 68.32zm-60 6.59L24.41 48 12 61.73z" fill="#fff" fill-rule="evenodd"/></mask></defs><g transform="translate(0 .002)" mask="url(#1652546356)"><path d="M13.87 75.15a4 4 0 01-4.14.65l-7.27-3.05A4 4 0 010 69.08V26.42a4 4 0 012.46-3.67l7.27-3a4 4 0 014.14.65l1.63 1.35a2.21 2.21 0 00-3.5 1.8v48.4a2.21 2.21 0 003.5 1.8z" fill="#52218a"/><path d="M2.46 72.75A4 4 0 010 69.08v-.33a2.31 2.31 0 004 1.55L66 1.75A6 6 0 0172.82.59l19.78 9.52a6 6 0 013.4 5.41v.23a3.79 3.79 0 00-6.19-2.93L15.5 73.75l-1.63 1.4a4 4 0 01-4.14.65z" fill="#6c33af"/><path d="M2.46 22.75A4 4 0 000 26.42v.33a2.31 2.31 0 014-1.55l62 68.55a6 6 0 006.82 1.16l19.78-9.52a6 6 0 003.4-5.41v-.23a3.79 3.79 0 01-6.19 2.93L15.5 21.75l-1.63-1.4a4 4 0 00-4.14-.6z" fill="#854cc7"/><path d="M72.82 94.91A6 6 0 0166 93.75a3.52 3.52 0 006-2.49v-87a3.52 3.52 0 00-6-2.51A6 6 0 0172.82.59L92.6 10.1a6 6 0 013.4 5.41v64.48a6 6 0 01-3.4 5.41z" fill="#b179f1"/><path transform="translate(0 -.25)" d="M68.89 95.6a6 6 0 003.93-.44l19.78-9.51a6 6 0 003.4-5.41V15.76a6 6 0 00-3.4-5.41L72.82.84a6 6 0 00-4.48-.29A6 6 0 0066 2L34.12 37.26 15.5 22l-1.63-1.4a4 4 0 00-3.61-.83 2.55 2.55 0 00-.53.18L2.46 23A4 4 0 000 26.37v43.26A4 4 0 002.46 73l7.27 3a2.55 2.55 0 00.53.18 4 4 0 003.61-.83L15.5 74l18.62-15.26L66 94a6 6 0 002.89 1.6zM72 27.68L47.21 48 72 68.32zm-60 6.59L24.41 48 12 61.73z" fill="url(#1652546395)" fill-rule="evenodd" opacity=".25"/></g></svg>