<svg xmlns="http://www.w3.org/2000/svg" xmlns:svg="http://www.w3.org/2000/svg" id="svg3749" width="32" height="16" version="1.1" viewBox="0 0 32 16"><g id="g3747" transform="matrix(0.48599086,0,0,0.48599086,0.50191451,-0.299629)" style="fill:none;fill-rule:evenodd"><g id="g3741" transform="translate(-292.02353,-314.25882)" style="fill:#fff"><path style="fill-rule:nonzero;stroke-width:.10270619" id="path3739" d="M 16.007812,0 3.2929688,0.03515625 2.2324219,0.40234375 C 0.91449728,1.1071083 0,2.575555 0,3.9863281 c 0,1.2651363 1.3074352,7.8137089 1.7402344,8.7167969 0.553077,1.153703 1.988134,2.456836 3.234375,2.9375 0.8530743,0.328933 1.4753185,0.348528 10.9804686,0.357422 9.789951,0.0091 10.106534,-0.002 11.087891,-0.369141 1.221173,-0.456851 2.835858,-1.955656 3.333984,-3.09375 0.336145,-0.767943 1.638672,-7.5615083 1.638672,-8.5488279 0,-1.4107731 -0.849384,-3.02258715 -2.234375,-3.58398435 L 28.791016,0 Z m -4.27539,4.890625 c 0.427942,0 0.812664,0.071135 1.152344,0.2128906 0.342354,0.1390812 0.631097,0.3382162 0.86914,0.5976563 0.243393,0.2674641 0.430211,0.5965523 0.558594,0.984375 0.131057,0.3878229 0.197266,0.8262256 0.197266,1.3183593 0,0.4921338 -0.06744,0.9337216 -0.201172,1.3242188 -0.131058,0.387823 -0.316645,0.711263 -0.554688,0.970703 -0.246067,0.270139 -0.536042,0.474922 -0.873047,0.611328 -0.33433,0.136407 -0.71782,0.203125 -1.148437,0.203125 -0.419919,0 -0.801456,-0.0699 -1.146484,-0.208984 C 10.243584,10.765216 9.9516549,10.563618 9.7109375,10.298828 9.4702197,10.034039 9.2834009,9.7093672 9.1523438,9.3242188 9.0239608,8.9390707 8.9609375,8.4987146 8.9609375,8.0039062 c 0,-0.4867846 0.063023,-0.9214925 0.1914063,-1.3066406 C 9.2807263,6.3094427 9.4687769,5.9766597 9.7148438,5.7011719 9.950212,5.4390572 10.242141,5.2386906 10.589844,5.0996094 10.940222,4.9605279 11.320527,4.890625 11.732422,4.890625 Z m 9.933594,0 c 0.427942,0 0.812664,0.071135 1.152343,0.2128906 0.342354,0.1390812 0.631098,0.3382162 0.869141,0.5976563 0.243392,0.2674641 0.430211,0.5965523 0.558594,0.984375 0.131057,0.3878229 0.197265,0.8262256 0.197265,1.3183593 0,0.4921338 -0.06744,0.9337216 -0.201171,1.3242188 -0.131058,0.387823 -0.316645,0.711263 -0.554688,0.970703 -0.246067,0.270139 -0.536042,0.474922 -0.873047,0.611328 -0.33433,0.136407 -0.71782,0.203125 -1.148437,0.203125 -0.419919,0 -0.801456,-0.0699 -1.146485,-0.208984 -0.342353,-0.139081 -0.634282,-0.340679 -0.875,-0.605469 C 19.403813,10.034039 19.216995,9.7093672 19.085938,9.3242188 18.957555,8.9390707 18.894531,8.4987146 18.894531,8.0039062 c 0,-0.4867846 0.06302,-0.9214925 0.191407,-1.3066406 0.128382,-0.3878229 0.316433,-0.7206059 0.5625,-0.9960937 0.235368,-0.2621147 0.527296,-0.4624813 0.875,-0.6015625 0.350377,-0.1390815 0.730683,-0.2089844 1.142578,-0.2089844 z m -16.0839848,0.125 h 2.359375 V 5.625 H 7.1582031 v 4.753906 h 0.7832031 v 0.611328 H 5.5820312 V 10.378906 H 6.3652344 V 5.625 H 5.5820312 Z m 9.9335938,0 H 17.875 V 5.625 h -0.783203 v 4.753906 H 17.875 v 0.611328 h -2.359375 v -0.611328 h 0.783203 V 5.625 h -0.783203 z m 9.933594,0 h 2.359375 V 5.625 h -0.783203 v 4.753906 h 0.783203 v 0.611328 h -2.359375 v -0.611328 h 0.783203 V 5.625 h -0.783203 z m -13.712891,0.5625 c -0.607143,0 -1.083937,0.2102191 -1.43164,0.6328125 -0.3450291,0.4199185 -0.5175786,1.0173231 -0.5175786,1.7929687 0,0.7836694 0.1762443,1.3854905 0.5292966,1.8027344 0.353053,0.4145694 0.826152,0.6210934 1.419922,0.6210934 0.59377,0 1.065638,-0.206524 1.416016,-0.6210934 0.353052,-0.4172439 0.529297,-1.019065 0.529297,-1.8027344 0,-0.7756456 -0.173782,-1.3730502 -0.521485,-1.7929687 C 12.812453,5.7883441 12.338122,5.578125 11.736328,5.578125 Z m 9.933594,0 c -0.607144,0 -1.083938,0.2102191 -1.431641,0.6328125 -0.345028,0.4199185 -0.517578,1.0173231 -0.517578,1.7929687 0,0.7836694 0.176244,1.3854905 0.529297,1.8027344 0.353052,0.4145694 0.826152,0.6210934 1.419922,0.6210934 0.59377,0 1.065638,-0.206524 1.416016,-0.6210934 0.353052,-0.4172439 0.529296,-1.019065 0.529296,-1.8027344 0,-0.7756456 -0.173781,-1.3730502 -0.521484,-1.7929687 C 22.746047,5.7883441 22.271716,5.578125 21.669922,5.578125 Z" transform="matrix(2.0576519,0,0,2.0576519,290.99076,314.87535)"/></g></g></svg>