<svg xmlns="http://www.w3.org/2000/svg" xmlns:xlink="http://www.w3.org/1999/xlink" width="256" height="295" preserveAspectRatio="xMidYMid" version="1.1" viewBox="0 0 256 295"><defs><filter id="filter-1" width="200%" height="200%" x="-50%" y="-50%" filterUnits="objectBoundingBox"><feOffset dx="0" dy="0" in="SourceAlpha" result="shadowOffsetOuter1"/><feGaussianBlur in="shadowOffsetOuter1" result="shadowBlurOuter1" stdDeviation="6.5"/></filter><linearGradient id="linearGradient-2" x1="48.548%" x2="51.047%" y1="115.276%" y2="41.364%"><stop offset="0%" stop-color="#FFEED7"/><stop offset="100%" stop-color="#BDBFC2"/></linearGradient><linearGradient id="linearGradient-3" x1="54.407%" x2="46.175%" y1="2.404%" y2="90.542%"><stop offset="0%" stop-color="#FFF" stop-opacity=".8"/><stop offset="100%" stop-color="#FFF" stop-opacity="0"/></linearGradient><linearGradient id="linearGradient-4" x1="51.86%" x2="47.947%" y1="88.248%" y2="9.748%"><stop offset="0%" stop-color="#FFEED7"/><stop offset="100%" stop-color="#BDBFC2"/></linearGradient><linearGradient id="linearGradient-5" x1="49.925%" x2="49.924%" y1="85.49%" y2="13.811%"><stop offset="0%" stop-color="#FFEED7"/><stop offset="100%" stop-color="#BDBFC2"/></linearGradient><linearGradient id="linearGradient-6" x1="53.901%" x2="45.956%" y1="3.102%" y2="93.895%"><stop offset="0%" stop-color="#FFF" stop-opacity=".65"/><stop offset="100%" stop-color="#FFF" stop-opacity="0"/></linearGradient><linearGradient id="linearGradient-7" x1="45.593%" x2="54.811%" y1="5.475%" y2="93.524%"><stop offset="0%" stop-color="#FFF" stop-opacity=".65"/><stop offset="100%" stop-color="#FFF" stop-opacity="0"/></linearGradient><linearGradient id="linearGradient-8" x1="49.984%" x2="49.984%" y1="89.845%" y2="40.632%"><stop offset="0%" stop-color="#FFEED7"/><stop offset="100%" stop-color="#BDBFC2"/></linearGradient><linearGradient id="linearGradient-9" x1="53.505%" x2="42.746%" y1="99.975%" y2="23.545%"><stop offset="0%" stop-color="#FFEED7"/><stop offset="100%" stop-color="#BDBFC2"/></linearGradient><linearGradient id="linearGradient-10" x1="49.841%" x2="50.241%" y1="13.229%" y2="94.673%"><stop offset="0%" stop-color="#FFF" stop-opacity=".8"/><stop offset="100%" stop-color="#FFF" stop-opacity="0"/></linearGradient><linearGradient id="linearGradient-11" x1="49.927%" x2="50.727%" y1="37.327%" y2="92.782%"><stop offset="0%" stop-color="#FFF" stop-opacity=".65"/><stop offset="100%" stop-color="#FFF" stop-opacity="0"/></linearGradient><linearGradient id="linearGradient-12" x1="49.876%" x2="49.876%" y1="2.299%" y2="81.204%"><stop offset="0%" stop-color="#FFF" stop-opacity=".65"/><stop offset="100%" stop-color="#FFF" stop-opacity="0"/></linearGradient><linearGradient id="linearGradient-13" x1="49.833%" x2="49.824%" y1="2.272%" y2="71.799%"><stop offset="0%" stop-color="#FFF" stop-opacity=".65"/><stop offset="100%" stop-color="#FFF" stop-opacity="0"/></linearGradient><linearGradient id="linearGradient-14" x1="53.467%" x2="38.949%" y1="48.921%" y2="98.1%"><stop offset="0%" stop-color="#FFA63F"/><stop offset="100%" stop-color="#FF0"/></linearGradient><linearGradient id="linearGradient-15" x1="52.373%" x2="47.579%" y1="143.009%" y2="-64.622%"><stop offset="0%" stop-color="#FFEED7"/><stop offset="100%" stop-color="#BDBFC2"/></linearGradient><linearGradient id="linearGradient-16" x1="30.581%" x2="65.887%" y1="34.024%" y2="89.175%"><stop offset="0%" stop-color="#FFA63F"/><stop offset="100%" stop-color="#FF0"/></linearGradient><linearGradient id="linearGradient-17" x1="59.572%" x2="48.361%" y1="-17.216%" y2="66.118%"><stop offset="0%" stop-color="#FFF" stop-opacity=".65"/><stop offset="100%" stop-color="#FFF" stop-opacity="0"/></linearGradient><linearGradient id="linearGradient-18" x1="47.769%" x2="51.373%" y1="1.565%" y2="104.313%"><stop offset="0%" stop-color="#FFF" stop-opacity=".65"/><stop offset="100%" stop-color="#FFF" stop-opacity="0"/></linearGradient><linearGradient id="linearGradient-19" x1="43.55%" x2="57.114%" y1="4.533%" y2="92.827%"><stop offset="0%" stop-color="#FFF" stop-opacity=".65"/><stop offset="100%" stop-color="#FFF" stop-opacity="0"/></linearGradient><linearGradient id="linearGradient-20" x1="49.733%" x2="50.558%" y1="17.609%" y2="99.385%"><stop offset="0%" stop-color="#FFA63F"/><stop offset="100%" stop-color="#FF0"/></linearGradient><linearGradient id="linearGradient-21" x1="50.17%" x2="49.68%" y1="2.89%" y2="94.17%"><stop offset="0%" stop-color="#FFF" stop-opacity=".65"/><stop offset="100%" stop-color="#FFF" stop-opacity="0"/></linearGradient></defs><g fill="none"><g><path fill="#000" fill-opacity=".2" d="M235.125423,249.358628 C235.125423,266.714271 182.507524,280.855905 117.584567,280.855905 C52.6616093,280.855905 0.0437105058,266.806099 0.0437105058,249.358628 L0.0437105058,249.358628 C0.0437105058,232.002986 52.6616093,217.861352 117.584567,217.861352 C182.507524,217.861352 235.033594,232.002986 235.125423,249.358628 L235.125423,249.358628 L235.125423,249.358628 Z" filter="url(#filter-1)" transform="translate(10.000000, 0.000000)"/><path fill="#000" d="M53.2125821,215.473804 C41.8258117,199.128278 39.6219206,145.867578 66.160442,113.084699 C79.2919595,97.3819748 82.6896249,86.4543483 83.6997416,71.6699125 C84.434372,54.8652433 71.8538272,4.81855066 119.237485,1.05357012 C167.263944,-2.80323922 164.600909,44.5804184 164.325423,69.6496791 C164.141765,90.7703016 179.844489,102.799874 190.680286,119.329056 C210.607135,149.632558 208.954216,201.791313 186.915306,230.074582 C158.999353,265.428667 135.123866,250.093259 119.237485,251.378862 C89.4849556,253.123609 88.4748389,268.918162 53.2125821,215.473804 L53.2125821,215.473804 Z" transform="translate(10.000000, 0.000000)"/><path fill="url(#linearGradient-2)" d="M169.10052,122.451235 C177.365111,130.073025 198.76122,164.141508 164.876395,185.445788 C152.938652,192.88392 175.528535,221.167189 186.364333,207.484699 C205.556551,182.874582 193.343321,143.571858 181.772893,129.522053 C174.059275,119.604543 162.121532,115.747734 169.10052,122.451235 L169.10052,122.451235 Z" transform="translate(10.000000, 0.000000)"/><path fill="#000" stroke="#000" stroke-width=".977" d="M166.8048,117.859796 C180.395461,128.879251 205.097407,167.447344 169.008691,192.608434 C157.162777,200.413881 179.477174,225.115827 192.057718,212.535282 C235.676395,168.641119 190.955773,118.227111 175.528535,100.871469 C161.754216,85.719718 149.540987,104.360963 166.8048,117.859796 L166.8048,117.859796 Z" transform="translate(10.000000, 0.000000)"/><path fill="url(#linearGradient-3)" d="M147.245267,25.0208853 C146.786123,37.60143 132.919975,48.5290565 116.298963,49.5391732 C99.6779518,50.54929 86.638263,40.9990954 87.097407,28.4185507 L87.097407,28.4185507 C87.556551,15.8380059 101.422699,4.91037946 118.043711,3.90026272 C134.664722,2.98197479 147.704411,12.4403405 147.245267,25.0208853 L147.245267,25.0208853 L147.245267,25.0208853 Z" transform="translate(10.000000, 0.000000)"/><path fill="url(#linearGradient-4)" d="M107.483399,54.9570721 C107.942543,63.1298347 104.085734,70.0169942 98.7596638,70.2924806 C93.4335938,70.567967 88.7503253,64.2317802 88.2911813,56.0590176 L88.2911813,56.0590176 C87.8320374,47.8862549 91.6888467,40.9990954 97.0149167,40.723609 C102.340987,40.4481226 107.024255,46.7843094 107.483399,54.9570721 L107.483399,54.9570721 L107.483399,54.9570721 Z" transform="translate(10.000000, 0.000000)"/><path fill="url(#linearGradient-5)" d="M117.125423,55.5998736 C117.30908,65.0582394 123.461609,72.5882005 130.807913,72.4045429 C138.154216,72.2208853 143.93943,64.4154378 143.755773,54.8652433 L143.755773,54.8652433 C143.572115,45.4068775 137.419586,37.8769164 130.073282,38.060574 C122.726979,38.2442316 116.849936,46.1415079 117.125423,55.5998736 L117.125423,55.5998736 L117.125423,55.5998736 Z" transform="translate(10.000000, 0.000000)"/><path fill="#000" d="M123.186123,57.7119359 C123.094294,62.9461771 125.6655,67.1703016 129.063166,67.1703016 C132.369002,67.1703016 135.215695,62.9461771 135.307524,57.8037647 L135.307524,57.8037647 C135.399353,52.5695234 132.828146,48.3453989 129.430481,48.3453989 C126.032816,48.3453989 123.277952,52.5695234 123.186123,57.7119359 L123.186123,57.7119359 L123.186123,57.7119359 Z" transform="translate(10.000000, 0.000000)"/><path fill="#000" d="M101.973672,57.8037647 C102.432816,62.119718 100.779897,65.7928697 98.3923486,66.1601849 C96.0048,66.4356713 93.7090802,63.2216635 93.2499362,58.9057102 L93.2499362,58.9057102 C92.7907922,54.5897569 94.4437105,50.9166051 96.8312591,50.54929 C99.2188078,50.2738036 101.514528,53.4878114 101.973672,57.8037647 L101.973672,57.8037647 L101.973672,57.8037647 Z" transform="translate(10.000000, 0.000000)"/><path fill="url(#linearGradient-6)" d="M124.563555,54.7734145 C124.288068,57.7119359 125.6655,60.0994845 127.593905,60.2831421 C129.52231,60.4667997 131.358886,58.1710798 131.634372,55.3243872 L131.634372,55.3243872 C131.909858,52.3858658 130.532426,49.9983172 128.604022,49.8146596 C126.675617,49.631002 124.839041,51.9267219 124.563555,54.7734145 L124.563555,54.7734145 L124.563555,54.7734145 Z" transform="translate(10.000000, 0.000000)"/><path fill="url(#linearGradient-7)" d="M99.9534381,55.5080448 C100.228925,57.8955935 99.2188078,60.0076557 97.7495471,60.1913133 C96.2802864,60.3749709 94.9028545,58.538395 94.6273681,56.0590176 L94.6273681,56.0590176 C94.3518817,53.6714689 95.3619984,51.5594067 96.8312591,51.3757491 C98.3005198,51.1920915 99.6779518,53.1204962 99.9534381,55.5080448 L99.9534381,55.5080448 L99.9534381,55.5080448 Z" transform="translate(10.000000, 0.000000)"/><path fill="url(#linearGradient-8)" d="M71.0273681,145.68392 C77.5472125,130.899485 91.4133603,104.911936 91.6888467,84.80143 C91.6888467,68.8232199 139.531648,64.9664106 143.388458,80.9446207 C147.245267,96.9228308 156.979119,120.798317 163.223477,132.368745 C169.467835,143.847344 187.558107,180.487033 168.274061,212.443453 C150.918419,240.726722 98.3005198,263.132948 70.2009089,208.586644 C60.6507144,189.669913 62.3954615,166.25357 71.0273681,145.68392 L71.0273681,145.68392 Z" transform="translate(10.000000, 0.000000)"/><path fill="url(#linearGradient-9)" d="M65.1503253,134.664465 C59.5487689,145.224776 47.9783409,172.957072 76.2616093,188.108823 C106.65694,204.270691 106.565111,237.420885 70.0172514,221.626333 C36.5915704,207.39287 51.3760062,149.724387 60.7425432,135.950068 C66.8032436,126.308045 75.986123,114.46213 65.1503253,134.664465 L65.1503253,134.664465 Z" transform="translate(10.000000, 0.000000)"/><path fill="#000" stroke="#000" stroke-width="1.25" d="M69.9254226,122.726722 C61.0180296,137.235671 39.7137494,171.395983 68.2725043,189.210769 C106.65694,212.810769 95.8211424,236.31894 60.7425432,215.106488 C11.3386521,185.537617 54.7736716,125.848901 74.5168623,103.07536 C97.1067455,77.5469553 78.8328156,107.758628 69.9254226,122.726722 L69.9254226,122.726722 Z" transform="translate(10.000000, 0.000000)"/><path fill="url(#linearGradient-10)" d="M156.428146,151.285477 C156.428146,167.447344 140.90908,188.384309 114.27873,188.200652 C86.8219206,188.384309 75.1596638,167.447344 75.1596638,151.285477 C75.1596638,135.123609 93.341765,121.992092 115.747991,121.992092 C138.246045,122.08392 156.428146,135.123609 156.428146,151.285477 L156.428146,151.285477 Z" transform="translate(10.000000, 0.000000)"/><path fill="url(#linearGradient-11)" d="M141.919197,100.504154 C141.643711,117.216994 130.716084,121.165632 116.941765,121.165632 C103.167446,121.165632 93.1581074,118.686255 91.9643331,100.504154 C91.9643331,89.1173833 103.167446,82.5057102 116.941765,82.5057102 C130.716084,82.4138814 141.919197,89.0255546 141.919197,100.504154 L141.919197,100.504154 Z" transform="translate(10.000000, 0.000000)"/><path fill="url(#linearGradient-12)" d="M58.6304809,126.216216 C67.6297027,112.533726 86.638263,91.504932 62.2118039,129.154737 C42.3767844,160.19287 54.8655004,180.119718 61.293516,185.629446 C79.8429323,202.158628 79.1083019,213.269913 64.5075237,204.546177 C33.1939051,185.904932 39.7137494,154.499485 58.6304809,126.216216 L58.6304809,126.216216 Z" transform="translate(10.000000, 0.000000)"/><path fill="url(#linearGradient-13)" d="M188.935539,131.817772 C181.130092,115.747734 156.336318,74.9757491 190.129314,122.359407 C220.89196,165.243453 199.312193,195.087811 195.455384,198.026333 C191.598574,200.964854 178.650714,206.933726 182.415695,196.557072 C186.272504,186.180418 205.372893,166.529056 188.935539,131.817772 L188.935539,131.817772 Z" transform="translate(10.000000, 0.000000)"/><path fill="url(#linearGradient-14)" stroke="#E68C3F" stroke-width="6.25" d="M51.8351502,258.541508 C31.2655004,247.613881 1.42114241,260.65357 12.2569401,231.084699 C14.4608311,224.381197 9.0429323,214.280029 12.5324265,207.760185 C16.6647222,199.77108 25.5721152,201.515827 30.8981852,196.189757 C36.1324265,190.680029 39.438263,181.129835 49.263944,182.599095 C58.9977961,184.068356 65.5176405,196.006099 72.3129712,210.698706 C77.3635549,221.167189 95.1783409,235.951625 93.9845665,247.70571 C92.5153058,265.704154 72.0374848,269.101819 51.8351502,258.541508 L51.8351502,258.541508 Z" transform="translate(10.000000, 0.000000)"/><path fill="url(#linearGradient-15)" d="M201.607913,189.11894 C198.485734,194.995983 185.446045,204.454348 176.72231,201.974971 C167.906746,199.587422 163.866279,186.180418 165.611026,175.987422 C167.263944,164.600652 176.72231,163.95785 188.660053,169.651235 C201.516084,175.987422 205.372893,181.313492 201.607913,189.11894 L201.607913,189.11894 Z" transform="translate(10.000000, 0.000000)"/><path fill="url(#linearGradient-16)" stroke="#E68C3F" stroke-width="6.251" d="M194.445267,253.490924 C209.505189,235.216994 243.022699,238.981975 220.432816,213.912714 C215.657718,208.494815 217.126979,196.924387 211.249936,191.965632 C204.362777,185.904932 196.740987,190.863687 189.761998,187.741508 C182.78301,184.343842 175.436707,177.823998 166.896629,182.415438 C158.356551,187.098706 157.438263,199.220107 156.611804,215.198317 C155.877174,226.676916 145.408691,245.869134 151.010247,256.429446 C159.091181,272.774971 180.119975,270.57108 194.445267,253.490924 L194.445267,253.490924 Z" transform="translate(10.000000, 0.000000)"/><path fill="url(#linearGradient-17)" d="M187.925423,229.064465 C211.249936,194.628667 193.894294,194.904154 188.017251,192.241119 C182.140209,189.486255 175.987679,184.068356 169.10052,187.833337 C162.21336,191.690146 161.846045,201.607656 161.662388,214.647344 C161.386901,224.013881 153.581454,239.716605 158.264722,248.440341 C163.958107,258.633337 177.732426,243.848901 187.925423,229.064465 L187.925423,229.064465 Z" transform="translate(10.000000, 0.000000)"/><path fill="url(#linearGradient-18)" d="M47.0600529,234.02322 C12.1651113,211.433337 28.5106366,203.719718 33.7448778,200.138395 C40.0810646,195.546955 40.1728934,186.731391 47.9783409,187.55785 C55.7837883,188.384309 60.375228,198.026333 65.6094693,209.964076 C69.4662786,218.504154 82.8732825,229.890924 81.8631658,239.716605 C80.5775626,251.287033 62.1199751,243.665243 47.0600529,234.02322 L47.0600529,234.02322 Z" transform="translate(10.000000, 0.000000)"/><path fill="#000" d="M199.587679,188.843453 C196.832816,193.618551 185.629703,201.148512 178.19157,199.128278 C170.569781,197.199874 167.080286,186.455905 168.641376,178.374971 C170.018808,169.192092 178.19157,168.732948 188.476395,173.324387 C199.404022,178.283142 202.801687,182.507267 199.587679,188.843453 L199.587679,188.843453 Z" transform="translate(10.000000, 0.000000)"/><path fill="url(#linearGradient-19)" d="M192.057718,186.180418 C190.312971,189.486255 182.966668,194.720496 177.824255,193.343064 C172.681843,191.965632 170.110637,184.5275 170.937096,178.925944 C171.671726,172.589757 177.181454,172.222442 184.160442,175.344621 C191.690403,178.834115 194.077952,181.772636 192.057718,186.180418 L192.057718,186.180418 Z" transform="translate(10.000000, 0.000000)"/><path fill="url(#linearGradient-20)" stroke="#E68C3F" stroke-width="3.75" d="M97.1067455,66.3438425 C100.779897,62.9461771 109.68729,52.5695234 126.583788,63.4053211 C129.705967,65.4255546 132.277174,65.6092121 138.246045,68.1804184 C150.275617,73.1391732 144.582232,85.0769164 131.726201,89.1173833 C126.216473,90.8621304 121.257718,97.5656324 111.340209,96.9228308 C102.800131,96.4636868 100.59624,90.8621304 95.3619984,87.8317802 C86.0872903,82.597539 84.7098584,75.5267219 89.760442,71.7617413 C94.8110257,67.9967608 96.7394304,66.6193289 97.1067455,66.3438425 L97.1067455,66.3438425 Z" transform="translate(10.000000, 0.000000)"/><path stroke="#E68C3F" stroke-width="2.5" d="M138.429703,75.9858658 C133.379119,76.2613522 122.451493,87.1889787 110.972893,87.1889787 C99.4942942,87.1889787 92.6071346,76.5368386 90.8623875,76.5368386" transform="translate(10.000000, 0.000000)"/><path fill="url(#linearGradient-21)" d="M102.800131,65.4255546 C104.636707,63.7726363 110.421921,59.2730254 118.043711,63.8644651 C119.696629,64.782753 121.349547,65.7928697 123.737096,67.1703016 C128.604022,70.0169942 126.216473,74.14929 120.33943,76.7204962 C117.676395,77.8224417 113.268613,80.2099904 109.962777,80.0263328 C106.289625,79.6590176 103.810247,77.2714689 101.422699,75.7103795 C96.9230879,72.7718581 97.1985743,70.2924806 99.3106366,68.364076 C100.871726,66.8948153 102.616473,65.5173833 102.800131,65.4255546 L102.800131,65.4255546 Z" transform="translate(10.000000, 0.000000)"/></g></g></svg>