<?xml version="1.0" encoding="utf-8"?>
<!-- Generator: Adobe Illustrator 23.0.0, SVG Export Plug-In . SVG Version: 6.00 Build 0)  -->
<svg version="1.1" id="Layer_1" xmlns="http://www.w3.org/2000/svg" xmlns:xlink="http://www.w3.org/1999/xlink" x="0px" y="0px"
	 viewBox="0 0 1024 1024" style="enable-background:new 0 0 1024 1024;" xml:space="preserve">
<style type="text/css">
	.st0{opacity:0.8;fill:#00232E;}
	.st1{fill:url(#SVGID_1_);}
	.st2{opacity:0.16;fill:url(#SVGID_2_);}
	.st3{fill:url(#SVGID_3_);}
	.st4{opacity:0.16;fill:url(#SVGID_4_);}
	.st5{fill:url(#SVGID_5_);}
	.st6{opacity:0.15;fill:url(#SVGID_6_);}
	.st7{fill:url(#SVGID_7_);}
</style>
<polygon class="st0" points="449.5,645.47 407.51,621.23 533.47,548.5 407.51,475.77 449.5,451.53 617.45,548.5 "/>
<g>
	<linearGradient id="SVGID_1_" gradientUnits="userSpaceOnUse" x1="439.0065" y1="603.0394" x2="627.9464" y2="493.9549">
		<stop  offset="0" style="stop-color:#669ABD"/>
		<stop  offset="1" style="stop-color:#77DBDB"/>
	</linearGradient>
	<polygon class="st1" points="449.5,621.22 617.45,524.25 617.45,475.77 449.5,572.75 	"/>
	<linearGradient id="SVGID_2_" gradientUnits="userSpaceOnUse" x1="522.9788" y1="530.3148" x2="543.9741" y2="566.6795">
		<stop  offset="0.5588" style="stop-color:#000000;stop-opacity:0"/>
		<stop  offset="1" style="stop-color:#000000"/>
	</linearGradient>
	<polygon class="st2" points="449.5,621.22 617.45,524.25 617.45,475.77 449.5,572.75 	"/>
</g>
<g>
	<linearGradient id="SVGID_3_" gradientUnits="userSpaceOnUse" x1="397.0101" y1="566.6837" x2="459.9963" y2="603.0487">
		<stop  offset="0" style="stop-color:#6A8FAD"/>
		<stop  offset="1" style="stop-color:#669ABD"/>
	</linearGradient>
	<polygon class="st3" points="407.51,548.5 407.5,596.99 449.5,621.22 449.5,572.75 	"/>
	<linearGradient id="SVGID_4_" gradientUnits="userSpaceOnUse" x1="439.0009" y1="566.6838" x2="418.0056" y2="603.0486">
		<stop  offset="0.5588" style="stop-color:#000000;stop-opacity:0"/>
		<stop  offset="1" style="stop-color:#000000"/>
	</linearGradient>
	<polygon class="st4" points="407.51,548.5 407.5,596.99 449.5,621.22 449.5,572.75 	"/>
</g>
<g>
	<linearGradient id="SVGID_5_" gradientUnits="userSpaceOnUse" x1="397.0101" y1="421.2265" x2="522.9781" y2="493.9542">
		<stop  offset="0" style="stop-color:#6A8FAD"/>
		<stop  offset="1" style="stop-color:#669ABD"/>
	</linearGradient>
	<polygon class="st5" points="407.51,403.04 407.5,451.53 491.49,500.01 533.48,475.77 	"/>
	<linearGradient id="SVGID_6_" gradientUnits="userSpaceOnUse" x1="470.4924" y1="439.4067" x2="449.4958" y2="475.774">
		<stop  offset="0.5588" style="stop-color:#000000;stop-opacity:0"/>
		<stop  offset="1" style="stop-color:#000000"/>
	</linearGradient>
	<polygon class="st6" points="407.51,403.04 407.5,451.53 491.49,500.01 533.48,475.77 	"/>
</g>
<linearGradient id="SVGID_7_" gradientUnits="userSpaceOnUse" x1="386.5123" y1="512.136" x2="575.4605" y2="403.0467">
	<stop  offset="0" style="stop-color:#CCECFF"/>
	<stop  offset="1" style="stop-color:#9FECED"/>
</linearGradient>
<polygon class="st7" points="449.5,572.74 407.51,548.5 533.48,475.77 407.51,403.04 449.49,378.8 617.45,475.77 "/>
</svg>
