<svg xmlns="http://www.w3.org/2000/svg" xmlns:xlink="http://www.w3.org/1999/xlink" id="Layer_1" x="0" y="0" version="1.1" viewBox="0 0 1024 1024" xml:space="preserve" style="enable-background:new 0 0 1024 1024"><style type="text/css">.st0{opacity:.8;fill:#00232e}.st1{fill:url(#SVGID_1_)}.st2{opacity:.16;fill:url(#SVGID_2_)}.st3{fill:url(#SVGID_3_)}.st4{opacity:.16;fill:url(#SVGID_4_)}.st5{fill:url(#SVGID_5_)}.st6{opacity:.15;fill:url(#SVGID_6_)}.st7{fill:url(#SVGID_7_)}</style><polygon points="449.5 645.47 407.51 621.23 533.47 548.5 407.51 475.77 449.5 451.53 617.45 548.5" class="st0"/><g><linearGradient id="SVGID_1_" x1="439.007" x2="627.946" y1="603.039" y2="493.955" gradientUnits="userSpaceOnUse"><stop offset="0" style="stop-color:#669abd"/><stop offset="1" style="stop-color:#77dbdb"/></linearGradient><polygon points="449.5 621.22 617.45 524.25 617.45 475.77 449.5 572.75" class="st1"/><linearGradient id="SVGID_2_" x1="522.979" x2="543.974" y1="530.315" y2="566.679" gradientUnits="userSpaceOnUse"><stop offset=".559" style="stop-color:#000;stop-opacity:0"/><stop offset="1" style="stop-color:#000"/></linearGradient><polygon points="449.5 621.22 617.45 524.25 617.45 475.77 449.5 572.75" class="st2"/></g><g><linearGradient id="SVGID_3_" x1="397.01" x2="459.996" y1="566.684" y2="603.049" gradientUnits="userSpaceOnUse"><stop offset="0" style="stop-color:#6a8fad"/><stop offset="1" style="stop-color:#669abd"/></linearGradient><polygon points="407.51 548.5 407.5 596.99 449.5 621.22 449.5 572.75" class="st3"/><linearGradient id="SVGID_4_" x1="439.001" x2="418.006" y1="566.684" y2="603.049" gradientUnits="userSpaceOnUse"><stop offset=".559" style="stop-color:#000;stop-opacity:0"/><stop offset="1" style="stop-color:#000"/></linearGradient><polygon points="407.51 548.5 407.5 596.99 449.5 621.22 449.5 572.75" class="st4"/></g><g><linearGradient id="SVGID_5_" x1="397.01" x2="522.978" y1="421.226" y2="493.954" gradientUnits="userSpaceOnUse"><stop offset="0" style="stop-color:#6a8fad"/><stop offset="1" style="stop-color:#669abd"/></linearGradient><polygon points="407.51 403.04 407.5 451.53 491.49 500.01 533.48 475.77" class="st5"/><linearGradient id="SVGID_6_" x1="470.492" x2="449.496" y1="439.407" y2="475.774" gradientUnits="userSpaceOnUse"><stop offset=".559" style="stop-color:#000;stop-opacity:0"/><stop offset="1" style="stop-color:#000"/></linearGradient><polygon points="407.51 403.04 407.5 451.53 491.49 500.01 533.48 475.77" class="st6"/></g><linearGradient id="SVGID_7_" x1="386.512" x2="575.461" y1="512.136" y2="403.047" gradientUnits="userSpaceOnUse"><stop offset="0" style="stop-color:#ccecff"/><stop offset="1" style="stop-color:#9feced"/></linearGradient><polygon points="449.5 572.74 407.51 548.5 533.48 475.77 407.51 403.04 449.49 378.8 617.45 475.77" class="st7"/></svg>