<?xml version="1.0" encoding="utf-8"?>
<!-- Generator: Adobe Illustrator 23.0.0, SVG Export Plug-In . SVG Version: 6.00 Build 0)  -->
<svg version="1.1" id="Layer_1" xmlns="http://www.w3.org/2000/svg" xmlns:xlink="http://www.w3.org/1999/xlink" x="0px" y="0px"
	 viewBox="0 0 1024 1024" style="enable-background:new 0 0 1024 1024;" xml:space="preserve">
<style type="text/css">
	.st0{fill:url(#SVGID_1_);}
	.st1{opacity:0.16;fill:url(#SVGID_2_);}
	.st2{fill:url(#SVGID_3_);}
	.st3{opacity:0.16;fill:url(#SVGID_4_);}
	.st4{fill:url(#SVGID_5_);}
	.st5{opacity:0.15;fill:url(#SVGID_6_);}
	.st6{fill:url(#SVGID_7_);}
</style>
<g>
	<linearGradient id="SVGID_1_" gradientUnits="userSpaceOnUse" x1="260.9675" y1="871.1813" x2="919.1845" y2="491.1596">
		<stop  offset="0" style="stop-color:#669ABD"/>
		<stop  offset="1" style="stop-color:#77DBDB"/>
	</linearGradient>
	<polygon class="st0" points="297.54,934.52 882.6,596.72 882.61,427.82 297.54,765.65 	"/>
	<linearGradient id="SVGID_2_" gradientUnits="userSpaceOnUse" x1="553.5051" y1="617.8278" x2="626.647" y2="744.5132">
		<stop  offset="0.5588" style="stop-color:#000000;stop-opacity:0"/>
		<stop  offset="1" style="stop-color:#000000"/>
	</linearGradient>
	<polygon class="st1" points="297.54,934.52 882.6,596.72 882.61,427.82 297.54,765.65 	"/>
</g>
<g>
	<linearGradient id="SVGID_3_" gradientUnits="userSpaceOnUse" x1="114.6631" y1="744.5275" x2="334.0905" y2="871.2141">
		<stop  offset="0" style="stop-color:#6A8FAD"/>
		<stop  offset="1" style="stop-color:#669ABD"/>
	</linearGradient>
	<polygon class="st2" points="151.23,681.18 151.22,850.09 297.54,934.52 297.54,765.65 	"/>
	<linearGradient id="SVGID_4_" gradientUnits="userSpaceOnUse" x1="260.9478" y1="744.5281" x2="187.8059" y2="871.2135">
		<stop  offset="0.5588" style="stop-color:#000000;stop-opacity:0"/>
		<stop  offset="1" style="stop-color:#000000"/>
	</linearGradient>
	<polygon class="st3" points="151.23,681.18 151.22,850.09 297.54,934.52 297.54,765.65 	"/>
</g>
<g>
	<linearGradient id="SVGID_5_" gradientUnits="userSpaceOnUse" x1="114.663" y1="237.793" x2="553.5026" y2="491.1571">
		<stop  offset="0" style="stop-color:#6A8FAD"/>
		<stop  offset="1" style="stop-color:#669ABD"/>
	</linearGradient>
	<polygon class="st4" points="151.23,174.45 151.21,343.36 443.79,512.27 590.08,427.81 	"/>
	<linearGradient id="SVGID_6_" gradientUnits="userSpaceOnUse" x1="370.6562" y1="301.1281" x2="297.5094" y2="427.8221">
		<stop  offset="0.5588" style="stop-color:#000000;stop-opacity:0"/>
		<stop  offset="1" style="stop-color:#000000"/>
	</linearGradient>
	<polygon class="st5" points="151.23,174.45 151.21,343.36 443.79,512.27 590.08,427.81 	"/>
</g>
<linearGradient id="SVGID_7_" gradientUnits="userSpaceOnUse" x1="78.0912" y1="554.4979" x2="736.3375" y2="174.4593">
	<stop  offset="0" style="stop-color:#CCECFF"/>
	<stop  offset="1" style="stop-color:#9FECED"/>
</linearGradient>
<polygon class="st6" points="297.51,765.64 151.23,681.18 590.08,427.81 151.23,174.45 297.5,90 882.61,427.82 "/>
</svg>
