<?xml version="1.0" encoding="UTF-8" standalone="no"?>
<!DOCTYPE svg PUBLIC "-//W3C//DTD SVG 1.1//EN" "http://www.w3.org/Graphics/SVG/1.1/DTD/svg11.dtd">
<svg width="100%" height="100%" viewBox="0 0 426 426" version="1.1" xmlns="http://www.w3.org/2000/svg" xmlns:xlink="http://www.w3.org/1999/xlink" xml:space="preserve" xmlns:serif="http://www.serif.com/" style="fill-rule:evenodd;clip-rule:evenodd;stroke-linejoin:round;stroke-miterlimit:1.41421;">
    <g id="Layer-1" serif:id="Layer 1" transform="matrix(1,0,0,1,-29.3571,-233.318)">
        <g>
            <path id="path138" d="M93.68,293.848L287.16,405.423L229.046,438.975L93.68,356.409L93.68,293.848Z" style="fill:url(#_Linear1);"/>
            <path id="path118" d="M94.204,516.708L153.711,551.064L153.721,613.886L94.204,579.325L94.204,516.708Z" style="fill:url(#_Linear2);"/>
        </g>
        <path id="path116" d="M401.384,408.07L401.529,473.724L153.721,613.83L153.712,551.008L401.384,408.07Z" style="fill:rgb(0,94,167);fill-opacity:0.9;"/>
        <path id="path134" d="M148.072,261.343L92.84,293.232L287.16,405.423L93.366,517.309L153.198,551.853L346.992,439.967L402.224,408.078L148.072,261.343Z" style="fill:rgb(7,147,255);fill-opacity:0.9;"/>
    </g>
    <defs>
        <linearGradient id="_Linear1" x1="0" y1="0" x2="1" y2="0" gradientUnits="userSpaceOnUse" gradientTransform="matrix(193.48,0,0,320.038,93.6796,453.867)"><stop offset="0" style="stop-color:rgb(0,121,215);stop-opacity:0.9"/><stop offset="1" style="stop-color:rgb(40,97,156);stop-opacity:0.9"/></linearGradient>
        <linearGradient id="_Linear2" x1="0" y1="0" x2="1" y2="0" gradientUnits="userSpaceOnUse" gradientTransform="matrix(193.48,0,0,320.038,93.6796,453.867)"><stop offset="0" style="stop-color:rgb(0,121,215);stop-opacity:0.9"/><stop offset="1" style="stop-color:rgb(40,97,156);stop-opacity:0.9"/></linearGradient>
    </defs>
</svg>
