<svg xmlns="http://www.w3.org/2000/svg" xmlns:xlink="http://www.w3.org/1999/xlink" viewBox="0 0 65 57" fill="#fff" fill-rule="evenodd" stroke="#000" stroke-linecap="round" stroke-linejoin="round" width="300" height="300" font-family="Roboto" font-size="14px" text-anchor="middle"><defs><style type="text/css"></style></defs><use xlink:href="#A" x=".5" y=".5"></use><symbol id="A" overflow="visible"><g stroke="none" fill="#0d597f" fill-rule="nonzero"><path d="M23.252 34.527v-6.745l-4.855 4.864c.474.333.968.635 1.48.906.463.243.87.434 1.303.58a7.97 7.97 0 0 0 1.13.304c.348.064.66.093.95.096m24.822-.562a1.17 1.17 0 0 0 .142.1c.123.078.252.145.385.203a2.93 2.93 0 0 0 .637.194c.296.06.598.088.9.087a5.84 5.84 0 0 0 .955-.087 7.24 7.24 0 0 0 1.138-.301c.453-.16.895-.354 1.32-.58.52-.274 1.02-.58 1.503-.918l-3.685-3.6-12.2-12.258-5.356 5.356-7.23-7.455L8.44 32.647c.48.337.98.644 1.5.918.47.246.9.434 1.317.58a7.18 7.18 0 0 0 1.135.301 5.53 5.53 0 0 0 .955.087 4.53 4.53 0 0 0 .9-.087 3.29 3.29 0 0 0 .637-.194c.134-.054.263-.12.385-.197l.145-.104 8.193-8.193 2.924-2.808 8.106 8.106 2.837 2.912c.046.037.094.07.145.1.122.078.25.145.385.2a3.49 3.49 0 0 0 .637.194c.255.052.556.087.903.087a5.84 5.84 0 0 0 .955-.087c.387-.068.768-.168 1.138-.3a9.94 9.94 0 0 0 1.32-.579c.52-.274 1.02-.58 1.503-.918l-6.508-6.37 1.2-1.2 5.63 5.63 3.283 3.254M47.996.02l15.998 27.714-15.99 27.694H15.998L0 27.714 15.998 0z"></path><path d="M38.022 26.367L33.76 22.11l.304-.304 4.3 4.244z"></path></g></symbol></svg>