<?xml version="1.0" encoding="UTF-8" standalone="no"?>
<svg
   xmlns:dc="http://purl.org/dc/elements/1.1/"
   xmlns:cc="http://creativecommons.org/ns#"
   xmlns:rdf="http://www.w3.org/1999/02/22-rdf-syntax-ns#"
   xmlns:svg="http://www.w3.org/2000/svg"
   xmlns="http://www.w3.org/2000/svg"
   id="svg8"
   version="1.1"
   viewBox="0 0 256 256.00001"
   height="256"
   width="256">
  <defs
     id="defs2" />
  <metadata
     id="metadata5">
    <rdf:RDF>
      <cc:Work
         rdf:about="">
        <dc:format>image/svg+xml</dc:format>
        <dc:type
           rdf:resource="http://purl.org/dc/dcmitype/StillImage" />
        <dc:title></dc:title>
      </cc:Work>
    </rdf:RDF>
  </metadata>
  <g
     transform="matrix(6.9999999,0,0,6.9999736,16,-7617.6082)"
     id="layer1"
     style="fill:#73ba25;fill-opacity:1">
    <g
       style="fill:#73ba25;fill-opacity:1"
       transform="matrix(0.26458333,0,0,0.26458333,-10.590624,-38.473045)"
       id="g838">
      <circle
         r="0"
         cy="3582.8301"
         cx="507.46362"
         id="path872"
         style="opacity:0.3;fill:#73ba25;fill-opacity:1;stroke:none;stroke-width:1.90573967;stroke-miterlimit:4;stroke-dasharray:none;stroke-opacity:1" />
      <path
         id="path819"
         d="m 100.5002,4267.059 a 60.472077,60.472442 0 0 0 -47.607132,23.2988 c 7.375955,1.9706 12.596534,3.6642 14.160064,4.1895 0.0245,-0.9593 0.183589,-9.5391 0.183589,-9.5391 0,0 0.0202,-0.1964 0.124999,-0.2988 0.13497,-0.1318 0.330078,-0.092 0.330078,-0.092 1.939989,0.281 43.348482,6.4189 60.802382,16.5899 2.15548,1.261 3.21941,2.6017 4.5488,3.9609 4.82477,4.99 11.19998,25.7389 11.88469,30.0176 0.0269,0.1681 -0.18083,0.3507 -0.26953,0.4199 h -0.002 c -0.4957,0.3868 -1.03554,0.789 -1.57616,1.1484 -4.12998,2.7709 -13.64449,9.4312 -25.85142,8.3438 -10.96493,-0.97 -25.290388,-7.2597 -42.560284,-18.6387 1.69799,3.9756 3.371,7.9635 5.04489,11.9492 2.500985,1.299 26.640524,13.5997 38.554464,13.3594 9.59593,-0.1999 19.85892,-4.8804 23.96469,-7.3516 0,0 0.90227,-0.5436 1.29491,-0.2402 0.4295,0.3318 0.31068,0.8402 0.20898,1.3594 -0.25259,1.1786 -0.82764,3.3289 -1.21873,4.3496 l -0.33008,0.832 c -0.46999,1.2592 -0.92111,2.4296 -1.79101,3.1504 -2.41868,2.1993 -6.27908,3.9491 -12.32804,6.5781 -9.34995,4.09 -24.51938,6.6911 -38.603293,6.6016 -5.04437,-0.1123 -9.91781,-0.672 -14.197174,-1.1719 -8.782187,-0.9915 -15.927854,-1.7959 -20.285038,1.3555 a 60.472077,60.472442 0 0 0 45.517305,20.7734 60.472077,60.472442 0 0 0 60.47229,-60.4726 60.472077,60.472442 0 0 0 -60.47229,-60.4727 z m 13.4882,35.0879 c -4.73327,-0.1509 -9.24668,1.5194 -12.70695,4.75 -3.458684,3.2199 -5.437952,7.6097 -5.613251,12.3399 -0.326998,9.7581 7.334241,17.9803 17.083881,18.3398 4.75477,0.1596 9.25839,-1.5118 12.71867,-4.7617 3.44988,-3.2099 5.42915,-7.5999 5.61325,-12.3301 0.335,-9.7494 -7.33546,-17.9889 -17.0956,-18.3379 z m -0.14844,5.2188 c 6.82096,0.242 12.16127,5.972 11.93157,12.791 -0.1053,3.2885 -1.49253,6.3369 -3.90231,8.5976 -2.41329,2.2502 -5.56743,3.4203 -8.87691,3.3203 -6.80516,-0.251 -12.14564,-5.9877 -11.91594,-12.8085 0.1,-3.3008 1.51475,-6.3495 3.91403,-8.5997 2.39919,-2.2502 5.53828,-3.42 8.84956,-3.3007 z m 2.02147,6.2011 c -3.03067,0 -5.47848,1.631 -5.47848,3.6602 0,2.01 2.44781,3.6504 5.47848,3.6504 3.02888,0 5.4863,-1.6405 5.4863,-3.6504 0,-2.0292 -2.45572,-3.6602 -5.4863,-3.6602 z"
         style="opacity:1;fill:#73ba25;fill-opacity:1;stroke:none;stroke-width:1.90559804;stroke-miterlimit:4;stroke-dasharray:none;stroke-opacity:1" />
    </g>
  </g>
</svg>
