<?xml version="1.0" encoding="UTF-8" standalone="no"?>
<svg width="256px" height="256px" viewBox="0 0 256 256" version="1.1" xmlns="http://www.w3.org/2000/svg" xmlns:xlink="http://www.w3.org/1999/xlink" preserveAspectRatio="xMidYMid">
	<g>
		<path d="M255.637396,127.683191 C255.637396,198.196551 198.47207,255.363378 127.954205,255.363378 C57.4348387,255.363378 0.27026393,198.196551 0.27026393,127.683191 C0.27026393,57.1653255 57.4355894,0 127.954205,0 C198.472821,0 255.637396,57.1653255 255.637396,127.683191 L255.637396,127.683191 Z" fill="#DD4814"></path>
		<path d="M41.1334194,110.63254 C31.7139707,110.63254 24.0827683,118.264493 24.0827683,127.683191 C24.0827683,137.097384 31.7139707,144.728587 41.1334194,144.728587 C50.5476129,144.728587 58.1788152,137.097384 58.1788152,127.683191 C58.1788152,118.264493 50.5476129,110.63254 41.1334194,110.63254 L41.1334194,110.63254 Z M162.848282,188.111202 C154.694569,192.820551 151.898839,203.240727 156.608938,211.389935 C161.313032,219.543648 171.733208,222.338628 179.886921,217.629279 C188.039883,212.925185 190.835613,202.505009 186.126264,194.350545 C181.42217,186.202088 170.995988,183.407109 162.848282,188.111202 L162.848282,188.111202 Z M78.1618299,127.683191 C78.1618299,110.836739 86.5295015,95.9534545 99.3332551,86.9409032 L86.8703343,66.0667683 C71.9555191,76.0365044 60.8581818,91.271132 56.2464282,109.113806 C61.6276833,113.504845 65.0720469,120.189372 65.0720469,127.68244 C65.0720469,135.171003 61.6276833,141.855531 56.2464282,146.246569 C60.852176,164.094499 71.9495132,179.329877 86.8703343,189.299613 L99.3332551,168.420223 C86.5295015,159.412927 78.1618299,144.530393 78.1618299,127.683191 L78.1618299,127.683191 Z M127.954205,77.8855601 C153.967109,77.8855601 175.30895,97.8302874 177.549138,123.265877 L201.839859,122.907777 C200.644692,104.129689 192.441431,87.2719765 179.836622,74.875871 C173.354792,77.3247625 165.86773,76.9501466 159.396411,73.2197537 C152.91383,69.4788504 148.849361,63.1681877 147.738276,56.3177478 C141.438123,54.5790499 134.807648,53.6271202 127.952704,53.6271202 C116.168446,53.6271202 105.026815,56.3950733 95.1344047,61.2913548 L106.979472,82.5175836 C113.351695,79.5521877 120.460387,77.8855601 127.954205,77.8855601 L127.954205,77.8855601 Z M127.954205,177.475566 C120.460387,177.475566 113.351695,175.808188 106.980223,172.843543 L95.1351554,194.069021 C105.027566,198.971308 116.169196,201.740012 127.954205,201.740012 C134.80915,201.740012 141.439625,200.787331 147.739026,199.043378 C148.850111,192.192938 152.916082,185.888282 159.397161,182.140622 C165.872985,178.404223 173.355543,178.036364 179.837372,180.485255 C192.442182,168.08915 200.645443,151.231437 201.84061,132.453349 L177.543883,132.095249 C175.30895,157.537595 153.967859,177.475566 127.954205,177.475566 L127.954205,177.475566 Z M162.842276,67.2446686 C170.995988,71.9532669 181.416915,69.1642933 186.121009,61.0105806 C190.830358,52.856868 188.041384,42.4359413 179.886921,37.7258416 C171.733208,33.0217478 161.313032,35.8167273 156.602182,43.9704399 C151.898839,52.1196481 154.693818,62.5405748 162.842276,67.2446686 L162.842276,67.2446686 Z" fill="#FFFFFF"></path>
	</g>
</svg>